<?xml version="1.0" encoding="utf-8"?>
<!-- Generator: Adobe Illustrator 21.0.0, SVG Export Plug-In . SVG Version: 6.00 Build 0)  -->
<svg version="1.1" id="Layer_1" xmlns="http://www.w3.org/2000/svg" xmlns:xlink="http://www.w3.org/1999/xlink" x="0px" y="0px"
	 viewBox="0 0 250 296" style="enable-background:new 0 0 250 296;" xml:space="preserve">
<style type="text/css">
	.st0{fill:#FFFFFF;stroke:#FFFFFF;stroke-miterlimit:10;}
	.st1{enable-background:new    ;}
	.st2{fill:#FFFFFF;}
</style>
<g>
	<path class="st0" d="M205.3,87.6c3.1-3.3,7-6.2,5.7-11.5c-0.2-0.5,0.4-1.4,0.8-1.7c2.1-1.3,1.7-2.5,0-3.9c-0.8-0.7-1.5-1.7-1.8-2.8
		c-1.2-5.1-2.2-10.3-3.4-15.3c-0.4-1.4-0.2-2.2,0.7-3.4c2.2-3.1,4.3-6.4,5.7-9.8c1.7-4.5,1.4-9.3-1.3-13.5c-1.7-2.6-3.1-2.7-4.9-0.1
		c-1.1,1.6-2.1,3.1-2.8,4.9c-1.1,3.1-2.1,6.2-3,9.4c-2.6-3.2-5.2-6.4-7.9-9.5c4.6-5.3,5.1-11.1,1.5-17c-0.9-1.5-2-3-3.1-4.3
		c-0.7-0.7-2.1-1.7-2.9-1.5c-0.8,0.2-1.6,1.8-1.7,2.8c-0.2,5-0.1,10-0.1,15.5c-0.8-1-1.6-1.9-2.3-2.9c-1.1-1.6-1.9-3.5-3.1-4.9
		c-6.2-7.5-20.1-10.8-29.5-7.2c-1.1,0.4-2.7,1.6-2.7,2.2c0.1,1.1,1.1,2.5,2.2,3.1c10,5.5,20.7,8.4,32.1,9.1c0.7,0.1,1.5,0.7,1.9,1
		c-2.8,0-5.7-0.4-8.4,0.1c-4.2,0.8-8.3,2.3-12.4,3.6c-2.1,0.7-1.7,2.1-1,3.6c1.7,3.4,6.1,5.6,10.3,4.4c5.6-1.4,11.1-3.3,17.1-5.2
		c2.2,3.5,4.8,7.6,7.3,11.7c-0.2,0.2-0.4,0.4-0.6,0.6c-5.9-2.8-12.1-2.5-18.2-1.3c-0.9,0.2-2.2,1.1-2.2,1.8
		c-0.1,0.7,0.8,1.9,1.6,2.5c1,0.8,2.2,1.3,3.4,1.8c6,2.6,12.2,4,19.2,2.8c1,4.5,1.9,8.8,3,13.8c-3.4-2.2-6.3-4-9.1-5.7
		c-8.9-5.6-18-6.2-27.1-1.1c-4,2.2-7.9,5-11.6,7.9c-2.6,2.1-4.8,4.8-7.3,7.3c-0.6-1.3-1.1-2.4-1.5-3.4
		c-5.3-11.3-13.4-19.7-25.3-24.3c-10.7-4-21.8-5.3-32.9-7.1c-0.9-0.2-1.9,0.7-2.9,1.1c0.4,1,0.6,2.1,1.3,2.8c2.1,2.2,4.5,4,6.4,6.3
		c4.3,5.2,6.6,11.2,6.1,18.3c-13.9,1.7-27.7,3.1-41.7,2c-7.3-0.6-14.3-2.2-20.8-5.5c-2.7-1.3-4.3-0.2-3.7,2.8
		c1,4.3,1.8,8.9,3.9,12.9c9.9,19.3,26.3,30.5,46.8,36.2c4.4,1.3,9.1,1.6,13.9,2.3c-3.1,5.5-5.3,11.2-11,15
		c-10.7,7.5-20.9,15.5-31.4,23.4c-0.9,0.7-2.1,2.1-2,3c0.2,0.9,1.6,1.9,2.7,2.3c8.9,3.7,17.9,7.3,26.8,11c2.2,0.9,3.6,0.5,4.9-1.5
		c4.3-6.7,8.8-13.3,13-20.1c1.1-1.6,2.2-2.2,4-2.2c10.7,0.3,21.4,0,31.9-2.2c16.2-3.4,28.6-11.7,35.2-27.2
		c3.1-7.5,5.2-15.4,7.2-23.3c0.9-3.4,2.1-6.7,4.8-9c3.4-3.1,7.1-6.1,11.1-8.6c2.6-1.7,5.8-2.7,9.1-4.2
		C205.3,80.1,205.3,83.9,205.3,87.6z"/>
	<path class="st0" d="M205.3,87.6c0-3.8,0-7.5,0-12.1c-3.3,1.5-6.5,2.5-9.1,4.2c-3.9,2.5-7.5,5.5-11.1,8.6c-2.6,2.3-3.9,5.6-4.8,9
		c-2.1,7.9-4.1,15.8-7.2,23.3c-6.5,15.6-18.9,23.9-35.2,27.2c-10.6,2.2-21.2,2.5-31.9,2.2c-1.9-0.1-3.1,0.5-4,2.2
		c-4.3,6.7-8.8,13.3-13,20.1c-1.3,2.1-2.6,2.5-4.9,1.5c-8.9-3.8-17.9-7.3-26.8-11c-1.1-0.4-2.5-1.4-2.7-2.3c-0.2-0.9,1.1-2.2,2-3
		c10.3-7.9,20.7-15.9,31.4-23.4c5.6-3.9,7.8-9.5,11-15c-4.9-0.7-9.5-1.1-13.9-2.3c-20.6-5.6-37-16.7-46.9-36.1
		c-2.1-3.9-2.9-8.4-3.9-12.9c-0.7-3,1.1-4.1,3.7-2.8c6.6,3.4,13.5,4.9,20.8,5.5c13.9,1.1,27.7-0.2,41.7-2c0.5-7.1-1.7-13-6.1-18.3
		c-1.9-2.3-4.3-4.1-6.4-6.3c-0.7-0.7-0.8-1.9-1.3-2.8c1-0.4,2.1-1.3,2.9-1.1c11.2,1.7,22.2,3.1,32.9,7.1c12,4.5,20.1,12.9,25.3,24.3
		c0.4,1,0.9,2.1,1.5,3.4c2.5-2.5,4.7-5.2,7.3-7.3c3.7-2.9,7.5-5.7,11.6-7.9c9.2-5,18.3-4.5,27.1,1.1c2.9,1.8,5.7,3.5,9.1,5.7
		c-1.1-4.9-2-9.3-3-13.8c-6.9,1.2-13.1-0.1-19.2-2.8c-1.2-0.5-2.5-1.1-3.4-1.8c-0.7-0.6-1.7-1.7-1.6-2.5c0.1-0.7,1.3-1.6,2.2-1.8
		c6.2-1.3,12.2-1.5,18.2,1.3c0.2-0.2,0.4-0.4,0.6-0.6c-2.5-4.1-5.1-8.3-7.3-11.7c-6.1,1.9-11.6,3.8-17.1,5.2
		c-4.3,1.1-8.6-1.1-10.3-4.4c-0.7-1.5-1.1-3,1-3.6c4.1-1.3,8.2-2.8,12.4-3.6c2.8-0.5,5.7-0.1,8.4-0.1c-0.4-0.2-1.1-0.9-1.9-1
		c-11.3-0.7-22.1-3.6-32.1-9.1c-1.1-0.6-2.1-2.1-2.2-3.1c-0.1-0.7,1.6-1.9,2.7-2.2c9.4-3.6,23.4-0.2,29.5,7.2
		c1.2,1.5,2.1,3.4,3.1,4.9c0.7,1,1.5,1.9,2.3,2.9c0-5.4-0.1-10.4,0.1-15.5c0-1,0.9-2.5,1.7-2.8c0.7-0.2,2.2,0.7,2.9,1.5
		c1.2,1.3,2.2,2.8,3.1,4.3c3.6,5.9,3.1,11.6-1.5,17c2.6,3.2,5.2,6.3,7.9,9.5c1-3.1,1.8-6.4,3-9.4c0.7-1.7,1.7-3.3,2.8-4.9
		c1.7-2.5,3.1-2.5,4.9,0.1c2.7,4.3,3,9,1.3,13.5c-1.3,3.5-3.5,6.7-5.7,9.8c-0.8,1.2-1.1,2.1-0.7,3.4c1.3,5.1,2.2,10.3,3.4,15.3
		c0.2,1.1,1,2.1,1.8,2.8c1.7,1.4,2.2,2.5,0,3.9c-0.4,0.3-1,1.3-0.8,1.7C212.3,81.3,208.4,84.2,205.3,87.6z M38.6,69.6
		c1.1,3.2,1.8,5.8,2.8,8.1c4.8,11.2,13,19.4,23,25.8c11.2,7.2,23.4,12,37,11.5c2.4-0.1,3.4,1.4,2.2,3.7c-2.1,4-4.1,8-6.5,11.9
		c-0.9,1.6-2.2,3.1-3.6,4.1c-5.3,4.1-10.8,8.1-16.2,12.1c-5.7,4.2-11.2,8.4-17.2,13c8.8,3.5,17.1,6.9,25.4,10.3
		c4.9-7.4,9.6-14.5,14.2-21.6c1.1-1.8,2.4-2.4,4.6-2.3c11,0.4,21.9,0,32.8-2.1c16.1-3.1,27.6-12,33.5-27.3
		c2.5-6.6,3.9-13.7,6.2-20.4c1.1-3.4,2.5-6.9,4.8-9.7c4-5,9.1-8.9,15.2-11.2c2.7-1.1,5.3-2.3,8.6-3.8c-5.8-3.4-10.9-6.8-16.4-9.6
		c-4.5-2.3-9.3-2.3-14.3-0.7c-9.6,3.2-16.7,9.8-23.3,17.1c-2.8,3.1-3.8,3-5.2-1.1c-3.9-10.5-10.1-19-20.3-24.2
		c-9.4-4.9-19.9-6.4-30.3-8.1c0.1,0.4,0,0.6,0.2,0.7c0.4,0.5,0.8,1.1,1.2,1.6c4.8,6.4,8.1,13.2,7.5,21.6c-0.2,2.5-1,3.5-3.4,3.8
		c-6.8,0.5-13.6,1.3-20.4,1.9C66.8,75.4,52.8,75.5,38.6,69.6z"/>
	<path class="st0" d="M38.6,69.6c14.2,5.9,28,5.8,42.2,4.9c6.8-0.4,13.7-1.3,20.4-1.9c2.5-0.2,3.3-1.3,3.4-3.8
		c0.5-8.3-2.9-15.2-7.5-21.6c-0.4-0.5-0.8-1.1-1.2-1.6c-0.1-0.2-0.1-0.4-0.2-0.7c10.4,1.7,20.8,3.3,30.3,8.1
		c10.2,5.2,16.5,13.7,20.3,24.2c1.4,4,2.5,4.1,5.2,1.1c6.6-7.4,13.7-13.9,23.3-17.1c4.9-1.6,9.8-1.6,14.3,0.7
		c5.5,2.9,10.6,6.2,16.4,9.6c-3.4,1.5-6,2.7-8.6,3.8c-6.1,2.4-11.2,6.2-15.2,11.2c-2.2,2.8-3.6,6.3-4.8,9.7
		c-2.2,6.7-3.6,13.8-6.2,20.4c-5.8,15.4-17.4,24.3-33.5,27.3c-10.8,2.1-21.8,2.5-32.8,2.1c-2.2-0.1-3.4,0.5-4.6,2.3
		c-4.6,7.2-9.3,14.3-14.2,21.6c-8.4-3.4-16.6-6.7-25.4-10.3c6-4.5,11.6-8.7,17.2-13c5.4-4,10.9-8,16.2-12.1c1.4-1.1,2.7-2.6,3.6-4.1
		c2.2-3.9,4.4-7.8,6.5-11.9c1.1-2.2,0.2-3.8-2.2-3.7c-13.7,0.4-25.8-4.3-37-11.5c-10.1-6.5-18.3-14.7-23-25.8
		C40.4,75.4,39.7,72.8,38.6,69.6z M185.2,63.1c-1.7,1.8-3.5,2.9-3.8,4.1c-0.4,2.3,1.7,3.1,3.8,3.1c2,0.1,4-0.7,3.8-2.8
		C188.7,66.2,186.8,65,185.2,63.1z"/>
</g>
<g class="st1">
	<path class="st2" d="M10.4,208.8l-0.8,0.1l-1.2-0.6c-0.2-0.6-0.4-1.1-0.4-1.7c0-1.3,0.7-2.2,2.1-2.8c1-0.3,2.2-0.6,3.9-0.6
		c3.9,0,7.6,0.7,10.9,1.9c4.7,1.7,7,4.1,7,7.4c0,1.9-0.8,3.6-2.5,5c-1.2,1.1-3,2.1-5.1,2.9c2.2,0.9,3.9,1.9,5,3.2
		c1.3,1.5,2,3.3,2,5.6c0,3.5-1.6,6.1-4.8,8c-2.7,1.6-5.9,2.5-9.6,2.5c-3.3,0-5.7-0.7-7-2c-1.1-1.1-1.7-2.8-1.7-5.2
		c0-1.1,0-2.1,0.1-3.1c0.2-3.5,0.4-5.6,0.4-6.1c-0.3-0.4-0.6-0.8-0.7-1.2S8,221.3,8,220.9c0-0.9,0.4-1.6,1.3-1.9
		c0-1.5,0.1-3.1,0.3-4.9C9.9,212.3,10.2,210.6,10.4,208.8z M14.1,232.4c0,0.8,0.2,1.3,0.6,1.7c0.3,0.3,1.3,0.6,2.8,0.6
		c2,0,3.9-0.4,5.5-1.2c2-1,3.1-2.5,3.1-4.2c0-1.8-1.2-3.1-3.6-4.1c-1.8-0.8-3.7-1.1-5.8-1.1c-0.7,0-1.3,0.1-2.1,0.3
		c0,0.9-0.1,2.2-0.2,4.1C14.2,230,14.1,231.5,14.1,232.4z M26.5,212.6c0-1.3-1.5-2.3-4.4-3.1c-2.1-0.6-4.1-0.8-6.1-0.8
		c-0.2,1.3-0.4,2.9-0.7,4.7c-0.2,1.7-0.3,3.2-0.3,4.7c1.9,0,4.1-0.4,6.7-1.5C24.9,215.5,26.5,214.2,26.5,212.6z"/>
	<path class="st2" d="M42.8,237.9c0,0.6-0.3,1-1,1.3c-0.7,0.3-1.3,0.6-1.9,0.6c-1.8,0-2.9-0.8-3.5-2.5c-0.3-0.9-0.4-2.5-0.4-4.7
		c0-2.8,0.1-5.9,0.3-9.3c0.2-3.3,0.6-6.8,0.8-10.4c0.3-3.6,0.4-6.6,0.4-8.9c0-0.6,0.3-1,0.9-1.3c0.6-0.3,1.2-0.4,1.8-0.4
		c0.9,0,1.8,0.3,2.6,0.9c0.9,0.6,1.2,1.3,1.2,2.2c0,1-0.1,2.1-0.3,3.3c-0.2,1.2-0.3,2.3-0.6,3.5c-0.9,7.5-1.3,15-1.3,22.4
		c0,0.3,0.1,0.8,0.2,1.3C42.6,237,42.8,237.7,42.8,237.9z"/>
	<path class="st2" d="M49.9,208.8l-0.8,0.1l-1.2-0.6c-0.2-0.6-0.4-1.1-0.4-1.7c0-1.3,0.7-2.2,2.1-2.8c1-0.3,2.2-0.6,3.9-0.6
		c3.9,0,7.6,0.7,10.9,1.9c4.7,1.7,7,4.1,7,7.4c0,1.9-0.8,3.6-2.5,5c-1.2,1.1-3,2.1-5.1,2.9c2.2,0.9,3.9,1.9,5,3.2
		c1.3,1.5,2,3.3,2,5.6c0,3.5-1.6,6.1-4.8,8c-2.7,1.6-5.9,2.5-9.6,2.5c-3.3,0-5.7-0.7-7-2c-1.1-1.1-1.7-2.8-1.7-5.2
		c0-1.1,0-2.1,0.1-3.1c0.2-3.5,0.4-5.6,0.4-6.1c-0.3-0.4-0.6-0.8-0.7-1.2s-0.2-0.8-0.2-1.2c0-0.9,0.4-1.6,1.3-1.9
		c0-1.5,0.1-3.1,0.3-4.9C49.5,212.3,49.7,210.6,49.9,208.8z M53.6,232.4c0,0.8,0.2,1.3,0.6,1.7c0.3,0.3,1.3,0.6,2.8,0.6
		c2,0,3.9-0.4,5.5-1.2c2-1,3.1-2.5,3.1-4.2c0-1.8-1.2-3.1-3.6-4.1c-1.8-0.8-3.7-1.1-5.8-1.1c-0.7,0-1.3,0.1-2.1,0.3
		c0,0.9-0.1,2.2-0.2,4.1C53.7,230,53.6,231.5,53.6,232.4z M66,212.6c0-1.3-1.5-2.3-4.4-3.1c-2.1-0.6-4.1-0.8-6.1-0.8
		c-0.2,1.3-0.4,2.9-0.7,4.7c-0.2,1.7-0.3,3.2-0.3,4.7c1.9,0,4.1-0.4,6.7-1.5C64.4,215.5,66,214.2,66,212.6z"/>
	<path class="st2" d="M88.8,233.4c1.7,0,3,0.2,4,0.6c1.5,0.6,2.2,1.6,2.2,3c0,0.6-0.2,1.2-0.6,1.9c-0.3,0.7-0.8,1-1.3,1
		c-0.6,0-1.2-0.1-2.1-0.2c-2-0.3-3.2-0.6-3.7-0.6c-1.2,0-3.1,0.1-5.6,0.4c-2.5,0.2-4.2,0.4-5.5,0.4c-0.7,0-1.3-0.2-1.8-0.8
		s-0.8-1.1-0.8-1.8c0-1,0.4-1.7,1.5-2.2V233c0-2.8,0.1-5.8,0.3-9.3c0.2-3.5,0.6-6.9,0.8-10.6c0.3-3.7,0.4-6.6,0.4-8.8
		c0-0.6,0.3-1,0.9-1.3c0.6-0.3,1.1-0.4,1.8-0.4c1,0,1.9,0.2,2.7,0.8c0.9,0.6,1.2,1.2,1.2,2.1c0,2.6-0.2,5.8-0.7,9.8
		c-1,8.6-1.5,14.2-1.5,16.6v2.1c0.9,0,2.1-0.1,3.9-0.2C86.7,233.5,87.9,233.4,88.8,233.4z"/>
	<path class="st2" d="M103.9,230.9c0,0.7,0.1,1.5,0.3,2.2c0.2,0.2,0.9,0.3,1.8,0.4s1.6,0.1,1.8,0.1c0.8,0,1.6,0,2.3,0
		c0.8,0,1.7-0.1,2.6-0.2c1.8,0,3.2,0.1,4.1,0.4c1.6,0.6,2.5,1.6,2.5,3c0,0.4-0.1,0.9-0.3,1.3s-0.4,0.9-0.8,1.2l-0.9,0.4
		c-0.7,0-1.5,0-2.1-0.2c-2.1-0.3-3.3-0.6-3.7-0.6c-1.3,0-2.8,0-4.2,0.2c-4.2,0.3-6.5,0.6-6.9,0.6c-1,0-1.8-0.7-2.1-1.9
		c-0.3-1.2-0.6-2.9-0.6-5c0-1.1,0-2.1,0.1-3c0-0.9,0.1-1.9,0.2-3c-0.4-0.7-0.8-1.1-0.9-1.5c-0.2-0.6-0.3-1.1-0.3-1.7
		c0-0.4,0.1-0.9,0.3-1.2c0.2-0.3,0.7-0.6,1.2-0.9c0-2,0.2-4.2,0.6-6.6c0.3-2.3,0.7-4.6,1-6.8c-0.1-0.2-0.2-0.6-0.4-1.1
		c-0.2-0.6-0.3-0.9-0.3-1.1c0-1.6,1.7-2.7,5.1-3.2c1.7-0.2,4-0.4,6.9-0.4c3,0,5,0.2,6.1,0.8s1.7,1.3,1.7,2.7c0,0.6-0.2,1.2-0.8,2
		c-0.4,0.8-1,1.1-1.5,0.9c-0.6-0.2-1.1-0.3-1.7-0.4c-0.6,0-1.3-0.1-2.3-0.1c-0.3,0-0.8,0-1.2,0c-0.4,0-0.8,0-1.2-0.1
		c-1,0-1.9,0.1-2.7,0.2c-0.8,0.1-1.5,0.4-2,0.8c-0.3,0.8-0.6,2.7-0.9,5.5c-0.2,2.9-0.4,4.9-0.4,6.1c0.6,0,1.5,0,2.7-0.1
		c1.1-0.1,2-0.1,2.7-0.1c2.1,0,3.7,0.1,4.6,0.3c1.8,0.4,2.8,1.5,2.8,3c0,1.5-0.7,2.3-2,2.8c-1.5-0.3-2.9-0.6-4.4-0.6
		c-0.8,0-1.9,0-3.3,0.2c-1.5,0.1-2.6,0.1-3.3,0.1c0,0.4,0,1.3-0.1,2.6C104,230.2,103.9,230.9,103.9,230.9z"/>
	<path class="st2" d="M136.2,229.7c0,2.8,0.3,5.6,0.9,8.4c-0.2,0.7-0.7,1.1-1.2,1.5c-0.6,0.3-1.3,0.4-2.1,0.4c-1.5,0-2.5-0.8-3-2.3
		c-0.3-1.1-0.6-2.6-0.6-4.6v-1.3c0-2.3,0.1-4.8,0.3-7.5c0.2-2.7,0.3-5.4,0.6-8.4c0.2-2.9,0.3-5.2,0.3-7.1c-0.9,0-1.7,0-2.3,0.1
		c-2.3,0.2-3.7,0.3-3.9,0.3l-1.3-0.2c-0.7-0.6-1.1-1.1-1.3-1.6c-0.2-0.4-0.3-1.1-0.3-1.8c0-1,0.2-1.8,0.7-2.1c0.4-0.3,1.1-0.6,2-0.6
		c0.3,0,0.6,0,0.9,0c0.3,0,0.7,0,1,0c1.6,0,5.1-0.2,10.5-0.7c2.7-0.2,4.8-0.3,6.4-0.3c1.5,0,2.5,0.2,3.2,0.6c1,0.4,1.6,1.3,1.6,2.7
		c0,1.1-0.2,1.8-0.7,2.2s-1.1,0.7-1.9,0.7c-0.4,0-1.1,0-1.9-0.1c-0.8-0.1-1.2-0.1-1.5-0.1c-1.6,0-3.1,0.1-4.7,0.4
		c-0.4,3.8-0.8,7.4-1.1,10.9C136.3,222.9,136.2,226.3,136.2,229.7z"/>
	<path class="st2" d="M164.9,203.3c3,0,5.4,1.9,6.9,5.6c1.1,2.8,1.8,5.9,1.8,9.5c0,5.4-0.9,10-2.8,14c-2.5,5-6,7.6-10.8,7.6
		c-3.8,0-6.6-1.7-8.5-5.1c-1.5-2.7-2.2-6.1-2.2-10.3c0-3.8,1-8.3,2.9-13.5c2.3-6.4,5-9.6,8.1-9.6c0.7,0,1.2,0.2,1.7,0.7
		c0.4,0.4,0.9,0.9,1.2,1.6c0.3,0,0.6-0.1,0.9-0.1C164.2,203.3,164.6,203.3,164.9,203.3z M155.3,224.5c0,2.5,0.2,4.5,0.8,6
		c0.8,2.5,2.2,3.7,4.1,3.7c3.1,0,5.2-3.2,6.5-9.6c0.4-2.6,0.8-5,0.8-7.3c0-2.5-0.2-4.4-0.6-5.6c-0.7-2.3-1.9-3.6-3.8-3.6
		c-1.6,0-2.8,1-3.7,2.9c-0.9,1.9-1.8,2.9-2.5,2.9c-0.6,1.7-1,3.3-1.3,5.1C155.5,221,155.3,222.8,155.3,224.5z"/>
	<path class="st2" d="M179.9,209c-0.6-0.2-1.1-0.6-1.5-0.9c-0.3-0.3-0.6-0.9-0.6-1.5c0-0.9,0.7-1.8,1.9-2.7c1.2-1,2.3-1.5,3.2-1.5
		c0.9,0,1.7,0.3,2.3,1.1c5.6,0.4,9.6,1.8,12.3,3.9c2.2,1.8,3.3,4,3.3,6.8s-1.2,5.1-3.6,7c-3,2.5-7.4,4.1-13.1,5c0,0.8,0,2-0.1,3.7
		c-0.1,1.7-0.1,2.9-0.1,3.7c0,0.6,0.2,1.5,0.6,2.7c0.2,0.7,0.3,1.1,0.3,1.6c-0.4,1.2-1.3,1.9-2.9,1.9c-1.6,0-2.6-0.8-3.2-2.5
		c-0.4-1.2-0.8-3-0.8-5.4c0-1.2,0-2.3,0.1-3.3c0-1,0.1-2,0.2-3.3c-0.4-0.6-0.7-1-0.9-1.3c-0.2-0.4-0.3-1-0.3-1.5l0.3-1l1.2-0.6
		c0-1.8,0.2-4.4,0.6-7.6C179.6,211.3,179.8,209.8,179.9,209z M195.5,214.1c0-1.6-1-2.9-3.1-3.8c-1.6-0.7-3.3-1.1-5.2-1.1h-1.2
		c-0.3,2.6-0.6,4.5-0.8,5.7c-0.2,2.2-0.4,4.1-0.4,5.7c2.2-0.2,4.4-0.9,6.6-1.9C194,217.4,195.5,215.8,195.5,214.1z"/>
	<path class="st2" d="M211.5,237.9c0,0.6-0.3,1-1,1.3c-0.7,0.3-1.3,0.6-1.9,0.6c-1.8,0-2.9-0.8-3.5-2.5c-0.3-0.9-0.4-2.5-0.4-4.7
		c0-2.8,0.1-5.9,0.4-9.3c0.2-3.3,0.6-6.8,0.8-10.4c0.3-3.6,0.4-6.6,0.4-8.9c0-0.6,0.3-1,0.9-1.3c0.6-0.3,1.2-0.4,1.8-0.4
		c0.9,0,1.8,0.3,2.6,0.9c0.9,0.6,1.2,1.3,1.2,2.2c0,1-0.1,2.1-0.3,3.3c-0.2,1.2-0.3,2.3-0.6,3.5c-0.9,7.5-1.3,15-1.3,22.4
		c0,0.3,0.1,0.8,0.2,1.3C211.2,237,211.5,237.7,211.5,237.9z"/>
	<path class="st2" d="M240,228.6c0,1.6-0.7,2.3-1.9,2.3c-0.3,0-0.6,0-0.7,0c0.4,1.2,0.8,2.2,1,2.8c0.3,1,0.8,1.9,1.3,2.8
		c0,0.1,0.1,0.3,0.3,0.7c0.1,0.3,0.2,0.6,0.2,0.7c0,0.7-0.3,1.2-0.9,1.7s-1.2,0.7-1.9,0.7c-1.9,0-3.3-1.7-4.5-5
		c-0.1-0.4-0.6-1.8-1.1-4.1h-1.8h-2.9c-2.6,0-4.2,0.3-4.9,1c-0.8,0.9-1.2,2.9-1.2,6.1c0,0.6-0.2,1-0.8,1.3c-0.6,0.3-1.1,0.6-1.6,0.6
		c-0.9,0-1.7-0.3-2.3-1c-0.6-0.7-0.9-1.5-0.9-2.5c0-1,0.8-4.1,2.3-9.5s3.1-10,4.7-14.3c1.9-5.1,3.2-8.1,4-9c0.6-0.6,1.3-0.9,2.3-0.9
		c1.1,0,2.1,0.6,2.9,1.6c0.1,0.1,0.6,2.5,1.5,7c0.9,4.6,1.8,9.3,2.7,14.2c1.6,0.2,2.7,0.7,3.2,1.2C239.8,227,240,227.8,240,228.6z
		 M228,214.2c-0.8,1.9-1.5,3.8-2.1,5.6c-0.7,1.9-1.2,3.8-1.9,5.9c1.1-0.1,2.1-0.2,3.1-0.3c1-0.1,2.1-0.1,3.2-0.1
		c-0.2-1.1-0.6-3-1.2-5.5C228.6,217.3,228.2,215.5,228,214.2z"/>
</g>
<g class="st1">
	<path class="st2" d="M38,258.7c-0.1,0.1-0.4,0.1-0.6,0.2c-0.2,0.1-0.5,0.1-0.7,0.2c-0.2,0.1-0.6,0.1-1.2,0.4
		c-0.6,0.1-1,0.2-1.1,0.2c-1,0.1-2,0.2-2.7,0.4c-0.9,0.1-1.7,0.4-2.6,0.6c0,0.4-0.1,0.7-0.1,1.2c-0.1,0.5-0.1,0.9-0.2,1.3
		c0,0.2-0.1,0.5-0.1,0.7c0,0.2-0.1,0.4-0.1,0.5c-0.1,0.4-0.1,0.7-0.2,1.1c-0.1,0.4-0.1,0.7-0.2,1.1c-0.1,0.4-0.1,0.9-0.2,1.3
		c-0.1,0.5-0.2,1-0.4,1.6s-0.2,1.1-0.2,1.6c-0.1,0.5-0.1,1-0.1,1.3l-1.6,9c-0.1,0.4-0.4,0.6-0.6,0.7c-0.4,0.1-0.6,0.1-0.7,0.1
		s-0.2-0.1-0.5-0.2c-0.2-0.1-0.4-0.7-0.4-1.6c0-0.6,0.1-1.3,0.1-2s0.1-1.2,0.1-2c0-0.2,0-0.6,0-1c0-0.4,0-0.7,0-1.2
		c0.1-1.3,0.2-2.7,0.5-4c0.1-1.3,0.4-2.7,0.6-4l1.1-5.6c-0.1,0-0.4,0-0.6,0s-0.4,0-0.6,0c-0.1,0-0.5,0.1-0.7,0.1
		c-0.4,0-0.7,0.1-1.1,0.2c-0.4,0.1-0.9,0.1-1.2,0.1c-0.4,0-0.9,0-1.3,0.1c-0.5,0.1-0.9,0-1.2,0c-0.4,0-0.6-0.1-1-0.2
		c-0.4-0.1-0.7-0.2-1.1-0.5c-0.4-0.2-0.7-0.5-0.9-0.7c-0.1-0.2-0.2-0.5-0.2-0.6c0-0.2,0-0.5,0-0.9c0,0,0-0.1,0-0.2s0.1-0.1,0.2-0.1
		c0.1,0,0.4,0,0.6,0s0.5,0,0.5,0c0.2,0,0.6,0,1.1-0.1c0.5-0.1,3.4-0.4,8.6-0.9c0.2,0,1-0.1,1.8-0.1c1,0,1.7-0.1,2.5-0.1
		c0.6,0,1.3,0,2,0.1c0.6,0.1,1.3,0.1,2.2,0.2c0.7,0.1,1.7,0.2,2.8,0.5C38.3,258,38.4,258.3,38,258.7z"/>
	<path class="st2" d="M39.3,273.9c0,1.2-0.4,2.5-1.2,3.7s-1.5,2.1-2.1,2.7s-1.1,1-1.5,1.3c-0.7,0.5-1.5,0.7-2.1,0.7
		c-0.5,0-1-0.1-1.3-0.4c-0.4-0.2-0.6-0.4-0.9-0.6c-0.2-0.2-0.4-0.4-0.5-0.6c-0.1-0.2-0.2-0.5-0.4-0.7c-0.1-0.2-0.2-0.5-0.2-0.9
		c0-0.2,0-0.5,0-0.5c0-0.4,0.1-0.9,0.2-1.3c0.1-0.5,0.4-1,0.5-1.5c0.1-0.5,0.5-1.1,0.7-1.7c0.4-0.7,0.6-1.1,0.7-1.3s0.2-0.4,0.4-0.5
		c0.1-0.1,0.2-0.4,0.5-0.6c0.2-0.2,0.6-0.7,1.1-1.5c-0.2,0-0.4,0-0.5-0.1c-0.1-0.4-0.1-0.6,0.1-0.9c0.2-0.2,0.5-0.5,0.9-0.6
		c0.4-0.1,0.6-0.4,0.9-0.4c0.2-0.1,0.5-0.1,0.6-0.1c0.1,0,0.2,0,0.4,0c0.1,0,0.2,0.1,0.4,0.1c0.1,0.1,0.4,0.2,0.7,0.4
		c0.2,0.2,0.6,0.6,1.1,1.1c0.5,0.5,0.9,1.2,1.1,2C39.2,272.5,39.3,273.2,39.3,273.9z M36.1,271.6c-0.6,0.7-1.3,1.7-2.1,3.1
		c-0.7,1.3-1.2,2.3-1.3,2.7c-0.1,0.4-0.2,0.7-0.2,1c0.4-0.1,0.7-0.2,1.1-0.5c0.4-0.2,0.7-0.5,1-0.7c0.2-0.2,0.5-0.5,0.6-0.9
		c0.2-0.2,0.4-0.6,0.6-1c0.2-0.4,0.4-0.9,0.6-1.5C36.6,273.4,36.5,272.6,36.1,271.6z"/>
	<path class="st2" d="M58.9,277.7c-0.2,0.5-0.6,1.1-1,1.6s-0.9,1-1.3,1.3c-0.5,0.4-1,0.7-1.2,0.9c-0.4,0.1-0.5,0.4-0.7,0.4
		c-0.1,0.1-0.5,0.2-1,0.4c-0.5,0.1-0.9,0.2-1.1,0.2c-0.2,0-0.4,0-0.6,0c-0.1,0-0.4,0-0.4,0c-0.1,0-0.4-0.1-0.6-0.2
		c-0.5-0.1-0.9-0.4-1-0.5c-0.2-0.1-0.5-0.5-0.9-0.9c-0.4-0.5-0.6-0.9-0.7-1.2c-0.1-0.4-0.2-0.7-0.2-1.2c-0.1-0.7-0.1-1.3,0-1.7
		c0.1-0.4,0.1-0.7,0.2-1c0-0.2,0.2-0.7,0.4-1.5c0.1-0.7,0.5-1.2,0.7-1.7c0.4-0.7,0.9-1.6,1.5-2.5c0.6-0.9,1.2-1.5,1.7-2
		c0.5-0.4,1-0.6,1.2-0.6s0.6,0,0.9,0.1s0.6,0.4,1,0.6c0.4,0.4,0.7,1,1,2c0.1,0.6,0.1,1.1,0.1,1.5s-0.1,0.7-0.1,1
		c-0.1,0.2-0.2,0.5-0.4,0.7c-0.4,0.6-0.9,1.3-1.6,2.2c-0.7,0.9-1.3,1.5-1.8,2c-0.5,0.4-0.9,0.7-1.1,1c-0.2,0.2-0.4,0.4-0.6,0.6
		c0.1,0.1,0.2,0.2,0.4,0.5c0.1,0.2,0.4,0.4,0.6,0.5c0.1,0.1,0.4,0.1,0.5,0.1c0.2,0,0.4,0,0.5,0c0.1,0,0.4,0,0.5,0
		c0.1,0,0.4-0.1,0.6-0.1c0.5-0.1,1.2-0.5,2.2-1c1-0.5,1.7-0.9,2.1-1.1C58.6,277.7,58.7,277.7,58.9,277.7z M53.5,270.9
		c-0.5,0.4-0.7,0.7-1,1.1c-0.2,0.4-0.6,0.9-1,1.6c-0.4,0.7-0.7,1.5-1,2.2c0.2-0.2,0.6-0.6,0.9-1c0.2-0.4,0.5-0.6,0.7-1
		c0.2-0.4,0.5-0.7,0.9-1.2C53.4,272.1,53.5,271.5,53.5,270.9z"/>
	<path class="st2" d="M70,268.2c0,0.2-0.1,0.6-0.4,1.1c-0.2,0.5-0.6,0.9-0.9,1.2c-0.4,0.4-0.6,0.7-0.9,1.1c-0.2,0.4-0.5,0.5-0.5,0.6
		c-0.1,0.1-0.2,0.4-0.5,0.6c-0.2,0.2-0.6,0.7-1,1.2s-0.7,1-1,1.2c-0.2,0.4-0.4,0.6-0.4,1.1c0,0.6,0.1,1.3,0.4,2.2
		c0.2,0.9,0.5,1.5,0.6,2c0,0.2,0.1,0.5,0.4,0.9c0.2,0.4,0.5,0.6,0.9,0.9c0.5,0.4,1.1,0.6,1.8,0.7s1.2,0.2,1.3,0.4s0.1,0.2,0.1,0.2
		c-0.1,0.1-0.2,0.1-0.5,0.2c-0.1,0-0.4,0.1-0.5,0.1c-0.1,0-0.4,0.1-0.9,0.1c-0.4,0-0.9,0-1.3-0.1c-0.1,0-0.4-0.1-0.5-0.2
		c-0.1-0.1-0.5-0.4-1-0.7c-0.5-0.4-1-1-1.6-2c-0.6-1-1-1.8-1.3-2.7c-0.2,0.2-2,2-5.2,5.2c-0.1,0.1-0.2,0.1-0.5,0
		c-0.2,0-0.5-0.2-0.7-0.6c-0.2-0.4-0.4-0.6-0.4-0.9c0-0.1,0.1-0.5,0.5-0.9c0.2-0.5,0.6-1,1.1-1.5c0.5-0.6,0.9-1.1,1.5-1.8
		c0.5-0.6,1-1.2,1.5-1.7c0.5-0.5,0.7-1,1.1-1.3c0.2-0.4,0.4-0.6,0.4-0.7c0-0.1,0-0.2,0-0.6c0-0.4-0.1-0.7-0.1-1.1
		c-0.1-0.4-0.1-0.9-0.2-1.3c0-0.4-0.1-0.6-0.1-0.7c0-0.1,0-0.4-0.1-0.5c0-0.1,0-0.4-0.1-0.5c-0.1-0.1,0-0.4-0.1-0.7
		c0-0.1,0-0.1,0.1-0.2c0.1-0.1,0.4-0.1,0.6,0c0.4,0.1,0.6,0.2,1,0.5c0.4,0.2,0.6,0.5,0.9,0.9c0.1,0.1,0.1,0.2,0.2,0.2
		c0,0.1,0.1,0.1,0.1,0.2c0.1,0.2,0.1,0.4,0.1,0.6s0.1,0.4,0.2,0.6c0.2-0.2,0.5-0.5,0.7-0.9c0.4-0.4,0.6-0.6,1-1s0.6-0.7,1-1.1
		c0.2-0.4,0.5-0.6,0.7-0.9c0.1-0.1,0.2-0.2,0.4-0.4c0.1-0.1,0.2-0.2,0.2-0.2c0.1-0.1,0.2-0.1,0.4-0.1c0.2,0,0.5,0.1,0.9,0.2
		c0.2,0.1,0.5,0.2,0.6,0.5C70.2,267.8,70,268,70,268.2z"/>
	<path class="st2" d="M81.9,273.1c0,0.7-0.1,1.5-0.5,2.3c-0.4,0.9-0.7,1.6-1.2,2.5c-0.5,0.9-1.1,1.6-1.7,2.2c-0.6,0.7-1.2,1.2-2,1.6
		c-0.2,0.1-0.5,0.2-1,0.2c-0.4,0-0.9-0.2-1.3-0.7c-0.5-0.5-0.7-1.1-0.6-1.8c0.1-0.4,0.2-0.5,0.5-0.7c0.2-0.1,0.5-0.2,0.7-0.4
		c0.2-0.1,0.4-0.2,0.6-0.5c0.9-0.9,1.6-1.7,2.1-2.7c0.5-1,0.7-1.8,1-2.6c-0.6,0-1.3,0.2-2.2,0.9c-0.4,0.2-0.7,0.7-1.2,1.2
		c-0.5,0.6-1,1.2-1.3,2c-0.1,0.2-0.2,0.6-0.4,1c-0.1,0.5-0.2,1-0.5,1.5c-0.2,0.5-0.4,1.1-0.5,1.6c-0.1,0.5-0.4,1.2-0.5,2.2
		c-0.2,1-0.4,1.7-0.5,2.5c-0.1,0.7-0.4,1.3-0.5,2.1c-0.1,0.6-0.2,1.3-0.4,2c0,0.1-0.1,0.4-0.1,0.7c-0.1,0.2-0.2,0.5-0.6,0.6
		c-0.6,0.1-1,0-1.3-0.4c-0.2-0.2-0.5-0.6-0.6-0.9c-0.1-0.4-0.1-0.7,0-1.1c0-0.5,0.1-1,0.2-1.5c0.1-0.5,0.2-0.9,0.2-1
		c0.4-1.1,0.9-2.8,1.5-5.3c0.6-2.5,1.1-4.3,1.3-5.6c0.2-1.3,0.5-2.3,0.7-3.1c0.1-0.7,0.4-1.5,0.5-2.3s0.4-1.5,0.5-2.2
		c0.1-0.7,0.4-1.3,0.5-2.1c0.1-0.7,0.5-1.1,0.9-1.1c0.5,0,0.7,0.1,1,0.4c0.2,0.2,0.4,0.4,0.4,0.6c0.1,0.2,0.1,0.5,0.2,1
		c0,0.5,0,1.1,0,1.8c-0.1,0.7-0.2,1.5-0.4,2.1c-0.1,0.6-0.4,1.3-0.5,2.2c0.1-0.1,0.2-0.4,0.5-0.7c0.2-0.2,0.5-0.6,0.9-0.9
		c0.4-0.2,0.6-0.5,1-0.7c0.4-0.2,0.7-0.4,1-0.4c1,0,1.7,0.2,2.5,0.7C81.4,270.7,81.6,271.7,81.9,273.1z"/>
	<path class="st2" d="M92.9,278.5c0,0.4-0.1,0.7-0.2,1.2c-0.1,0.4-0.2,0.6-0.4,0.7c0,0.1-0.2,0.2-0.4,0.6c-0.2,0.2-0.5,0.6-1,1
		c-0.4,0.4-0.9,0.6-1.2,0.7c-0.1,0.1-0.4,0.1-0.5,0.2c-0.2,0-0.6,0.1-1.3,0.1c-0.6,0-1.2-0.1-1.7-0.4c-0.6-0.2-1.1-0.6-1.5-1.1
		c-0.4-0.5-0.7-1-1-1.6c-0.2-0.6-0.5-1.1-0.6-1.7s-0.1-1-0.1-1.5c0-1.3,0.1-2.8,0.5-4c0.4-1.3,0.7-2.7,1.1-4.3
		c0.4-1.5,0.7-2.5,0.9-2.9c0.1-0.5,0.4-1.1,0.6-1.8c0.2-0.7,0.5-1.5,0.9-2.2c0.1-0.2,0.2-0.7,0.5-1.2c0.2-0.6,0.4-1,0.6-1.2
		c0.1-0.2,0.2-0.5,0.5-0.9c0.1-0.2,0.4-0.4,0.5-0.4c0.2,0,0.6,0,1,0.1c0.4,0.1,0.6,0.4,0.9,0.7c0.1,0.2,0.1,0.5,0.1,0.6
		c0,0.2-1.2,4-3.6,11.5c-0.1,0.6-0.4,1.1-0.4,1.5s-0.2,0.7-0.2,1.1c-0.1,0.4-0.1,0.7-0.2,1.1c-0.1,0.5-0.1,0.9-0.2,1.3
		c-0.1,0.5-0.1,1-0.2,1.3c0,0.5-0.1,0.7-0.1,1c0,0.1,0,0.4,0,0.7c0,0.4,0.1,0.9,0.4,1.2c0.2,0.2,0.6,0.4,1.1,0.4c0.2,0,0.6,0,1-0.1
		s1-0.2,1.7-0.6s1.2-0.5,1.5-0.7c0.2-0.1,0.6-0.4,0.9-0.5C92.6,278.7,92.8,278.6,92.9,278.5z"/>
	<path class="st2" d="M107.5,278.2c-0.2,0.4-0.5,0.9-0.9,1.3c-0.2,0.5-0.5,0.9-0.9,1.3c-0.4,0.4-0.7,0.7-1.1,1
		c-0.5,0.2-1,0.5-1.6,0.5c-0.5,0-1,0-1.5-0.2c-0.5-0.2-0.9-0.5-1.3-1c-0.4-0.5-0.7-1-1-1.7c-0.2-0.7-0.5-1.5-0.5-2.5
		c0,0-0.1,0.2-0.4,0.7c-0.2,0.5-0.5,1-0.9,1.5c-0.4,0.6-0.7,1.1-1.1,1.7c-0.4,0.5-0.9,1-1.2,1.1c-0.2,0.1-0.5,0.1-0.7,0.1
		c-0.2,0-0.4,0-0.5,0c-0.2,0-0.6-0.1-0.9-0.2c-0.2-0.1-0.5-0.4-0.6-0.6s-0.4-0.5-0.4-0.9c0-0.4-0.1-0.6-0.1-1c0-0.5,0.1-0.9,0.2-1.3
		c0.1-0.5,0.2-0.7,0.4-1c0.5-1.2,1.1-2.5,1.8-3.7s1.6-2.5,2.6-3.6c0.5-0.5,1-1,1.3-1.3c0.5-0.4,1-0.6,1.6-0.7c0.1,0,0.4,0,0.6,0
		c0.2,0,0.4,0.2,0.5,0.5c0.1,0.2,0.1,0.6,0,0.9c-0.1,0.2-0.2,0.5-0.5,0.6c0.4,0,0.7,0.1,1.1,0.2c0.4,0.1,0.7,0.2,1,0.5
		c0.2,0.2,0.4,0.5,0.5,0.7c0,0.2,0.1,0.5,0.1,0.7c0,0.4-0.1,0.9-0.2,1.5s-0.2,1.1-0.5,1.6c-0.2,0.6-0.4,1.2-0.5,1.8
		s-0.2,1.1-0.4,1.6c0,0.2-0.1,0.6-0.1,1s0,0.6,0.1,1c0.1,0.1,0.4,0.2,0.7,0.2c0.4,0,0.6-0.1,1.1-0.2c0.4-0.1,0.7-0.4,1.2-0.5
		c0.4-0.2,0.7-0.4,1.1-0.6c0.4-0.2,0.7-0.4,1-0.6C107.2,278.4,107.4,278.2,107.5,278.2z M99.8,270.6c-0.5,0.4-1,0.7-1.3,1.3
		c-0.5,0.6-0.9,1.2-1.2,2c-0.4,0.6-0.6,1.3-0.9,2c-0.2,0.6-0.5,1.2-0.5,1.6c0.4-0.4,0.7-0.9,1.1-1.3s0.7-1.1,1.1-1.6
		c0.4-0.6,0.7-1.2,1-1.8C99.4,272.1,99.7,271.4,99.8,270.6z"/>
	<path class="st2" d="M113.9,278.7c-0.1,0.9-0.4,1.7-0.7,2.3c-0.5,0.6-1,1-1.7,1.2c-0.7,0.2-1.5,0.2-2.1,0.1
		c-0.7-0.1-1.3-0.4-1.7-0.6s-0.6-0.6-1-1.1c-0.2-0.5-0.5-1-0.6-1.5c-0.1-0.5-0.2-1.2-0.1-2.1c0.1-1.2,0.4-2.5,0.7-3.6
		c0.4-1.1,0.5-1.8,0.7-2.3c0.2-0.5,0.2-0.9,0.5-1.1c0.1-0.4,0.2-0.5,0.4-0.6c0.1-0.1,0.2-0.1,0.4-0.1s0.2,0,0.4,0
		c0.5,0,1,0.1,1.5,0.6c0.5,0.4,0.7,0.9,0.7,1.2c-0.1,0.5-0.2,0.9-0.2,1c0,0.1-0.2,0.6-0.5,1.5c-0.2,0.7-0.5,1.7-0.9,2.7
		c-0.2,1-0.4,1.8-0.4,2.6c0.1,1.6,0.7,2.1,2,1.7C112.2,280.1,113.2,279.5,113.9,278.7z M112.6,264.6c0,0.5,0,0.9,0,1.1
		s-0.1,0.4-0.2,0.5c-0.1,0.1-0.4,0.2-0.7,0.2c-0.2,0-0.5,0-0.7-0.1c-0.2-0.1-0.4-0.2-0.5-0.2s-0.2-0.1-0.4-0.2
		c-0.1-0.1-0.2-0.4-0.5-0.7c-0.2-0.4-0.2-0.6-0.4-0.9c-0.1-0.1-0.1-0.4-0.1-0.6c0-0.2,0.1-0.4,0.2-0.5c0.1-0.1,0.4-0.1,0.5-0.1
		c0.2,0,0.4-0.1,0.6-0.1c0.2,0,0.4-0.1,0.6-0.1c0.2,0,0.4,0,0.6,0c0.2,0,0.4,0.1,0.4,0.2c0,0.1,0.1,0.2,0.2,0.4
		c0,0.1,0.1,0.2,0.1,0.5C112.4,263.9,112.6,264.2,112.6,264.6z"/>
	<path class="st2" d="M128,277.7c0,0.4,0,1-0.2,1.6s-0.4,1.1-0.6,1.5c-0.2,0.4-0.5,0.7-0.9,1c-0.4,0.4-0.7,0.6-1,0.7
		c-0.2,0.1-0.5,0.1-0.7,0.1c-0.2,0-0.4,0-0.6,0c-0.1,0-0.4-0.1-0.6-0.1c-0.2-0.1-0.5-0.2-0.7-0.4c-0.2-0.1-0.5-0.2-0.6-0.4
		c-0.1-0.1-0.4-0.4-0.5-0.6c-0.2-0.2-0.4-0.6-0.5-1c-0.1-0.4-0.2-0.9-0.4-1.3c-0.1-0.5-0.2-1-0.2-1.5c0-0.5-0.1-1.2,0-2.2
		c-0.6,0.5-1.2,1.2-1.8,2c-0.6,0.9-1,1.5-1.1,1.8c-0.2,0.4-0.4,0.7-0.5,1c-0.1,0.2-0.4,0.6-0.5,0.9c-0.1,0.4-0.4,0.6-0.5,0.7
		s-0.4,0.4-0.7,0.4c-0.2,0-0.5,0-0.7-0.1c-0.2-0.1-0.4-0.2-0.5-0.4c-0.1-0.1-0.2-0.4-0.4-0.6c-0.1-0.2-0.1-0.4-0.2-0.6
		c-0.1-0.2-0.1-0.5-0.1-0.9c0-0.1,0-0.4,0.1-0.7c0-0.5,0.1-0.9,0.1-1.2s0.1-0.7,0.2-1.1c0.1-0.2,0.1-0.5,0.2-0.7
		c0.1-0.2,0.1-0.6,0.4-1.2c0.1-0.6,0.5-1.6,1-2.8c0.5-1.2,0.7-2.3,1-2.9c0.2-0.7,0.4-1.2,0.5-1.3c0.1-0.1,0.1-0.4,0.2-0.5
		c0.1-0.1,0.2-0.2,0.5-0.4c0.2,0,0.5,0,0.9,0.1c0.2,0.1,0.5,0.2,0.7,0.4c0.2,0.2,0.2,0.4,0.2,0.6c-0.4,1.8-0.6,3.1-0.7,3.7
		c-0.1,0.6-0.2,1.1-0.2,1.6c0.2-0.5,0.5-0.9,0.7-1.1c0.2-0.2,0.5-0.5,0.6-0.7c0.2-0.1,0.4-0.4,0.6-0.4c0.1-0.1,0.4-0.1,0.6-0.2
		c0.2,0,0.5-0.1,0.7,0c0.4,0,0.5,0.1,0.6,0.1c0.1,0,0.2,0.1,0.4,0.2c0.1,0.1,0.4,0.2,0.5,0.4c0.1,0.1,0.2,0.2,0.4,0.4
		c0.2,0.4,0.4,0.6,0.4,0.9c0,0.1,0.1,0.4,0.1,0.5c0,0.1,0,0.2,0,0.5c0,0.1,0,0.4,0,0.7c0,0.4,0,0.7,0,1.1c0,0.5,0,0.9,0,1.3
		c0,0.5,0,0.9,0,1.2s0,0.6,0,1c0,0.4,0,0.6,0,0.9s0.1,0.4,0.4,0.5c0.4,0,0.6,0,0.9-0.1c0.2-0.1,0.5-0.2,0.7-0.4s0.6-0.4,1.1-0.7
		C127.4,278.4,127.8,278.1,128,277.7z"/>
	<path class="st2" d="M146.2,268.4c0.1,0.6,0.1,1.2,0.1,1.7s-0.1,0.9-0.4,1.2c-0.2,0.2-0.5,0.5-0.9,0.4c-0.2,0-0.4-0.2-0.6-0.5
		c-0.2-0.4-0.4-0.6-0.5-0.7c-0.1-0.1-0.2,0-0.2,0.4c0,1.6,0,3.1,0,4.4c0,1.3,0,2.6-0.2,3.9c0,0.4-0.1,0.7-0.2,1.2
		c-0.1,0.5-0.2,1-0.4,1.5c-0.1,0.5-0.5,0.9-0.7,1.2c-0.4,0.4-0.7,0.5-1.2,0.5c-0.1,0-0.4,0-0.6-0.1c-0.2,0-0.5-0.1-0.7-0.2
		s-0.4-0.2-0.5-0.4c-0.1-0.1-0.4-0.2-0.5-0.4c-0.1-0.1-0.4-0.4-0.7-0.7c-0.4-0.4-0.6-0.7-0.9-1.2c-0.2-0.5-0.5-1-0.6-1.3
		c-0.1-0.5-0.2-0.9-0.2-1.2c0-0.4,0-0.7,0.1-1.1c0.1-0.4,0.4-0.7,0.6-1c0.2-0.1,0.4-0.1,0.4,0.2c0,0.2,0,0.9,0.2,1.7
		c0.2,0.9,0.5,1.6,0.9,2.1c0.4,0.5,0.7,0.9,1.1,1.1c0.4,0.1,0.5,0.1,0.6-0.2c0.1-0.4,0.2-0.7,0.4-1.1c0.1-0.5,0.2-1.1,0.4-1.8
		c0.1-0.7,0.1-1.8,0.1-3.4s0-3.2,0-4.5c0-1.5,0.1-2.5,0.2-3.1c0.2-0.6,0.5-1,0.7-1.2c0.2-0.2,0.6-0.4,1.1-0.4s1,0.2,1.6,0.6
		c0.6,0.4,1,0.7,1.3,1.2C146,267.6,146.1,267.9,146.2,268.4z"/>
	<path class="st2" d="M158,276.1c0,0.1-0.1,0.4-0.2,0.5c-0.1,0.1-0.2,0.2-0.4,0.5c-0.7,1-1.1,1.5-1.2,1.7c-0.5,0.5-0.9,1-1.3,1.2
		c-0.5,0.4-1,0.7-1.7,1.1c-0.7,0.5-1.2,0.7-1.5,0.9c-0.4,0.1-0.6,0.2-1,0.2c-0.4,0-0.6,0.1-0.7,0.1c-0.5,0-0.9-0.1-1.2-0.4
		c-0.4-0.2-0.7-0.5-1.1-0.9c-0.4-0.4-0.6-0.7-0.7-1.1c-0.2-0.4-0.2-0.7-0.4-1.1c0-0.1,0-0.2,0-0.5c0-0.1,0-0.2,0-0.4
		c0-0.5,0.1-1.2,0.2-2.1c0.1-0.9,0.4-1.6,0.6-2.3c0.2-0.7,0.5-1.2,0.9-1.8c0.2-0.6,0.6-1.1,1.1-1.7c0.5-0.6,0.9-1,1.2-1.3
		c0.4-0.4,0.7-0.6,1-0.7c0.2-0.1,0.5-0.2,0.6-0.2c0.4,0,0.7,0,0.9,0.1c0.2,0.1,0.4,0.1,0.5,0.2c0.1,0.1,0.4,0.2,0.7,0.5
		c0.2,0.2,0.5,0.5,0.6,0.7c0.1,0.1,0.1,0.4,0.2,0.7c0.1,0.2,0.1,0.5,0.1,0.6c0,0.2,0,0.4,0,0.6c0,0.1,0,0.4-0.1,0.7
		c0,0.2-0.1,0.5-0.2,0.7c-0.1,0.2-0.2,0.4-0.4,0.5c-0.1,0.1-0.4,0.1-0.6,0.1s-0.5-0.1-0.7-0.2c-0.2-0.1-0.4-0.2-0.4-0.5
		c-0.1-0.1-0.1-0.4-0.1-0.6s0-0.5,0-0.7c-0.9,0.7-1.5,1.5-2,2.3c-0.5,0.9-0.9,1.7-1.2,2.7c-0.4,0.9-0.5,1.5-0.5,1.8
		c0,0.4,0,0.6,0,0.7c0.1,0.4,0.2,0.6,0.5,0.6c0.2,0,0.4,0.1,0.5,0c0.2,0,0.5-0.1,0.9-0.2c0.4-0.1,0.6-0.2,1-0.4
		c0.6-0.2,1.2-0.5,2-0.9c0.6-0.2,1.3-0.6,2.2-1.1c0.2-0.1,0.5-0.2,1-0.6C157.4,276,157.6,276.4,158,276.1z"/>
	<path class="st2" d="M167.7,271.7c0,0.2-0.1,0.5-0.4,0.6c-0.1,0.1-0.4,0.1-0.6,0.1s-0.5,0-0.6-0.1c-0.1-0.1-0.2-0.2-0.4-0.4
		c0-0.1-0.1-0.4-0.1-0.6c-0.7,0.1-1.5,0.6-2.1,1.3c-0.6,0.7-1.2,1.5-1.7,2.5c-0.5,0.9-0.9,1.6-1,2c-0.2,0.5-0.4,1-0.6,1.6
		c-0.2,0.6-0.4,1.1-0.5,1.5c-0.1,0.4-0.1,0.7-0.1,1.2c0,0.4-0.1,0.6-0.6,0.7c-0.1,0-0.4,0-0.6,0s-0.5-0.1-0.7-0.4
		c-0.1-0.1-0.2-0.2-0.4-0.5c-0.1-0.2-0.4-0.5-0.4-0.9c-0.1-0.4-0.1-0.6-0.1-1c0-0.4,0.1-0.7,0.2-1.1s0.2-0.7,0.2-1s0.1-0.7,0.2-1.1
		c0.1-0.5,0.2-1,0.4-1.6c0.1-0.6,0.2-1.2,0.4-1.8c0-0.5,0-0.9,0.1-1.3c0-0.5,0.1-1,0.1-1.5c0-0.4,0.1-0.7,0-1.2
		c0-0.5,0.1-0.7,0.2-0.9c0.7-0.1,1.2,0,1.5,0.2c0.2,0.2,0.5,0.5,0.6,0.7c0.1,0.2,0.1,0.5,0.2,0.7c0,0.2,0,0.5,0.1,0.7
		c0,0.2,0,0.7,0,1.2c0.2-0.4,0.5-0.6,0.6-0.9c0.2-0.2,0.5-0.4,0.7-0.6c0.2-0.2,0.6-0.4,1-0.6c0.4-0.1,0.6-0.2,1-0.2
		c0.6,0,1.2,0.1,1.8,0.4c0.6,0.2,1.1,0.6,1.5,1.1c0.1,0.1,0.1,0.2,0.1,0.4S167.7,271.4,167.7,271.7z"/>
	<path class="st2" d="M175.4,278.7c-0.1,0.9-0.4,1.7-0.7,2.3c-0.5,0.6-1,1-1.7,1.2c-0.7,0.2-1.5,0.2-2.1,0.1
		c-0.7-0.1-1.3-0.4-1.7-0.6c-0.4-0.2-0.6-0.6-1-1.1c-0.4-0.5-0.5-1-0.6-1.5c-0.1-0.5-0.2-1.2-0.1-2.1c0.1-1.2,0.4-2.5,0.7-3.6
		c0.4-1.1,0.5-1.8,0.7-2.3c0.2-0.5,0.2-0.9,0.5-1.1c0.1-0.4,0.2-0.5,0.4-0.6c0.1-0.1,0.2-0.1,0.4-0.1c0.1,0,0.2,0,0.4,0
		c0.5,0,1,0.1,1.5,0.6c0.5,0.4,0.7,0.9,0.7,1.2c-0.1,0.5-0.2,0.9-0.2,1s-0.2,0.6-0.5,1.5c-0.2,0.7-0.5,1.7-0.9,2.7
		c-0.2,1-0.4,1.8-0.4,2.6c0.1,1.6,0.7,2.1,2,1.7C173.8,280.1,174.7,279.5,175.4,278.7z M174.2,264.6c0,0.5,0,0.9,0,1.1
		c0,0.1-0.1,0.4-0.2,0.5c-0.1,0.1-0.4,0.2-0.7,0.2c-0.2,0-0.5,0-0.7-0.1c-0.2-0.1-0.4-0.2-0.5-0.2s-0.2-0.1-0.4-0.2
		c-0.1-0.1-0.2-0.4-0.5-0.7c-0.2-0.4-0.2-0.6-0.4-0.9c-0.1-0.1-0.1-0.4-0.1-0.6c0-0.2,0.1-0.4,0.2-0.5c0.1-0.1,0.4-0.1,0.5-0.1
		c0.2,0,0.4-0.1,0.6-0.1c0.2,0,0.4-0.1,0.6-0.1c0.2,0,0.4,0,0.6,0c0.2,0,0.4,0.1,0.4,0.2c0.1,0.1,0.1,0.2,0.2,0.4
		c0,0.1,0.1,0.2,0.1,0.5C174.1,263.9,174.1,264.2,174.2,264.6z"/>
	<path class="st2" d="M186.4,273.1c0,0.7-0.1,1.5-0.5,2.3c-0.4,0.9-0.7,1.6-1.2,2.5c-0.5,0.9-1.1,1.6-1.7,2.2
		c-0.6,0.7-1.2,1.2-2,1.6c-0.2,0.1-0.6,0.2-1,0.2c-0.4,0-0.9-0.2-1.3-0.7c-0.5-0.5-0.7-1.1-0.6-1.8c0.1-0.4,0.2-0.5,0.5-0.7
		c0.2-0.1,0.5-0.2,0.7-0.4c0.2-0.1,0.4-0.2,0.6-0.5c0.9-0.9,1.6-1.7,2.1-2.7c0.5-1,0.7-1.8,1-2.6c-0.6,0-1.3,0.2-2.2,0.9
		c-0.4,0.2-0.7,0.7-1.2,1.2c-0.5,0.6-1,1.2-1.3,2c-0.1,0.2-0.2,0.6-0.4,1c-0.1,0.5-0.2,1-0.5,1.5c-0.1,0.5-0.4,1.1-0.5,1.6
		c-0.1,0.5-0.4,1.2-0.5,2.2c-0.2,1-0.4,1.7-0.5,2.5c-0.1,0.7-0.4,1.3-0.5,2.1c-0.1,0.6-0.2,1.3-0.4,2c0,0.1-0.1,0.4-0.1,0.7
		c0,0.4-0.2,0.5-0.6,0.6c-0.6,0.1-1,0-1.3-0.4c-0.2-0.2-0.5-0.6-0.6-0.9c-0.1-0.4-0.1-0.7,0-1.1c0-0.5,0.1-1,0.2-1.5
		c0.1-0.5,0.2-0.9,0.2-1c0.4-1.1,0.9-2.8,1.5-5.3s1.1-4.3,1.3-5.6c0.2-1.3,0.5-2.3,0.7-3.1c0.1-0.7,0.4-1.5,0.5-2.3s0.4-1.5,0.5-2.2
		c0.1-0.7,0.4-1.3,0.5-2.1c0.1-0.7,0.5-1.1,0.9-1.1c0.5,0,0.7,0.1,1,0.4c0.2,0.2,0.4,0.4,0.4,0.6c0.1,0.2,0.1,0.5,0.2,1
		c0.1,0.5,0,1.1,0,1.8c-0.1,0.7-0.2,1.5-0.4,2.1c-0.1,0.6-0.4,1.3-0.5,2.2c0.1-0.1,0.2-0.4,0.5-0.7c0.2-0.2,0.5-0.6,0.9-0.9
		c0.4-0.2,0.6-0.5,1-0.7c0.4-0.2,0.7-0.4,1-0.4c1,0,1.7,0.2,2.5,0.7C185.7,270.9,186.2,271.7,186.4,273.1z"/>
	<path class="st2" d="M200.6,270c0,0.1,0,0.1-0.1,0.1c0,0-0.2,0.2-0.4,0.6c-0.2,0.4-0.5,0.6-0.9,0.9c-0.4,0.2-0.6,0.5-1,0.6
		c-0.2,0.1-0.5,0.4-0.7,0.5c-0.2,0.1-0.4,0.2-0.6,0.4c-0.1,0.1-0.4,0.2-0.7,0.4c-0.2,0.1-0.6,0.2-1.1,0.4c-0.4,0.1-1,0.4-1.6,0.5
		c-0.7,0.2-1.2,0.4-1.5,0.6s-0.5,0.4-0.7,0.5c-0.2,0.1-0.4,0.2-0.5,0.4c-0.1,0.2-0.2,0.6-0.2,1c-0.1,0.4-0.1,0.7-0.2,1.1
		c0,0.4-0.1,0.7-0.1,0.9s0,0.5,0,1c0,0.2,0,0.4,0,0.5c0,0.1,0,0.2,0,0.4c0,0.1,0,0.4,0.1,0.5c0.1,0.1,0,0.2,0,0.4s0,0.2,0,0.4
		c0,0.1-0.1,0.2-0.4,0.4c-0.1,0-0.1,0.1-0.2,0.1c-0.1,0-0.1,0-0.2,0c-0.1,0-0.2-0.1-0.4-0.1c-0.1,0-0.2-0.2-0.2-0.4
		c-0.4-0.5-0.6-1-0.7-1.3c-0.1-0.4-0.1-0.9-0.1-1.5c0-0.2,0-0.7,0-1.3s0-1.3,0.1-2.2c0,0,0-0.1-0.1-0.4c-0.1-0.1-0.2-0.4-0.4-0.5
		c-0.1-0.1-0.2-0.4-0.2-0.4c0-0.1-0.1-0.2-0.2-0.4c0,0-0.1-0.1-0.1-0.4s0-0.5,0.1-0.7c0.1-0.2,0.4-0.4,0.7-0.5
		c0.4,0,0.6-0.1,0.7-0.2c0.1-0.1,0.2-0.2,0.2-0.4c0.1-0.2,0.1-0.6,0.2-1.1c0.1-0.5,0.2-1.1,0.4-1.8c0.1-0.7,0.2-1.5,0.5-2.2
		c0.1-0.7,0.4-1.3,0.4-1.8c0.1-0.5,0.2-1.1,0.5-1.8c0.1-0.4,0.2-0.7,0.4-1.2c0.1-0.5,0.2-0.9,0.4-1.2c0.1-0.4,0.2-0.9,0.4-1.3
		s0.4-0.9,0.6-1c0.1-0.1,0.4-0.2,0.5-0.2c0.1,0,0.2,0,0.2,0c0.1,0,0.4,0,0.6,0.1c0.2,0.1,0.4,0.4,0.7,0.7c0.2,0.4,0.4,0.9,0.4,1.5
		s-0.1,1.2-0.4,2.1c-0.2,1.1-0.5,2.1-0.7,2.7c-0.2,0.6-0.4,1.3-0.6,2.1c-0.2,0.7-0.4,1.3-0.5,2c-0.1,0.5-0.2,1.2-0.4,2
		c0.1,0,0.2,0,0.4,0s0.5,0,1.1-0.1c0.6-0.1,1-0.1,1.2-0.1c0.7-0.1,1.6-0.1,2.5-0.2C198.1,270.3,199.2,270.1,200.6,270z"/>
	<path class="st2" d="M212.5,277.4c-0.1,0.5-0.2,0.9-0.4,1c-0.1,0.1-0.1,0.5-0.4,0.9c-0.1,0.4-0.4,0.7-0.6,1.1s-0.5,0.7-0.9,1
		c-0.4,0.2-0.9,0.6-1.5,0.7c-0.5,0.1-1.1,0-1.6,0c-0.6-0.1-1.1-0.5-1.7-1.1s-1-2-1.2-4.2c-0.5,1-1,1.8-1.5,2.7s-1,1.5-1.3,1.8
		c-0.4,0.4-0.9,0.6-1.2,0.7c-0.4,0.1-0.9,0.1-1.1,0c-0.4-0.1-0.7-0.4-1.1-1s-0.6-1.1-0.6-1.8c0-0.7,0-1.5,0.1-2.1
		c0.1-0.6,0.1-1,0.2-1.3s0.1-0.7,0.2-1.1c0.1-0.4,0.2-0.7,0.4-1.2c0.1-0.5,0.2-0.7,0.4-1s0.2-0.6,0.4-1.1c0.1-0.5,0.4-1,0.6-1.3
		c0.1-0.4,0.4-0.7,0.5-1.1c0.1-0.4,0.4-0.6,0.6-1c0.2-0.4,0.6-0.4,0.9-0.4c0.2,0,0.5,0.1,0.9,0.5c0.4,0.2,0.6,0.5,0.7,0.6
		c0.1,0.1,0.1,0.4,0,0.6c-0.1,0.4-0.2,0.9-0.6,1.5c-0.2,0.6-0.5,1.2-0.7,1.8c-0.4,0.9-0.6,1.6-1,2.5c-0.4,0.9-0.5,1.5-0.6,2
		c-0.1,0.6-0.2,1.2-0.2,1.8c0.9-0.9,1.8-2,2.8-3.3c1-1.3,1.8-2.8,2.6-4c0.1-0.2,0.4-0.6,0.5-0.9c0.1-0.2,0.2-0.5,0.4-0.6
		c0.1-0.1,0.2-0.2,0.4-0.2s0.4,0.1,0.9,0.4c0.4,0.2,0.7,0.5,1,0.6c0.5,0.4,0.6,0.9,0.4,1.5s-0.4,1.1-0.5,1.3
		c-0.1,0.4-0.2,0.7-0.4,1.2s-0.2,0.9-0.4,1.3c-0.1,0.5-0.1,1-0.2,1.6c0,0.5-0.1,1,0,1.3c0.4,1,1.1,1.1,2.3,0.4
		C211,278.8,211.9,278.1,212.5,277.4z"/>
	<path class="st2" d="M222.4,271.7c0,0.2-0.1,0.5-0.4,0.6c-0.1,0.1-0.4,0.1-0.6,0.1s-0.5,0-0.6-0.1c-0.1-0.1-0.2-0.2-0.4-0.4
		c0-0.1-0.1-0.4-0.1-0.6c-0.7,0.1-1.5,0.6-2.1,1.3c-0.6,0.7-1.2,1.5-1.7,2.5c-0.5,0.9-0.9,1.6-1,2c-0.1,0.4-0.4,1-0.6,1.6
		c-0.2,0.6-0.4,1.1-0.5,1.5c-0.1,0.4-0.1,0.7-0.1,1.2c0,0.5-0.1,0.6-0.6,0.7c-0.1,0-0.4,0-0.6,0s-0.5-0.1-0.7-0.4
		c-0.1-0.1-0.2-0.2-0.4-0.5c-0.1-0.2-0.4-0.5-0.4-0.9c-0.1-0.4-0.1-0.6-0.1-1c0-0.4,0.1-0.7,0.2-1.1c0.1-0.4,0.2-0.7,0.2-1
		c0.1-0.4,0.1-0.7,0.2-1.1c0.1-0.5,0.2-1,0.4-1.6c0.1-0.6,0.2-1.2,0.4-1.8c0-0.5,0-0.9,0.1-1.3c0-0.5,0.1-1,0.1-1.5
		c0-0.4,0.1-0.7,0-1.2c0-0.5,0.1-0.7,0.2-0.9c0.7-0.1,1.2,0,1.5,0.2c0.2,0.2,0.5,0.5,0.6,0.7c0.1,0.2,0.1,0.5,0.2,0.7
		c0.1,0.2,0,0.5,0.1,0.7c0,0.2,0,0.7,0,1.2c0.2-0.4,0.5-0.6,0.6-0.9c0.1-0.2,0.5-0.4,0.7-0.6c0.2-0.2,0.6-0.4,1-0.6
		c0.4-0.1,0.6-0.2,1-0.2c0.6,0,1.2,0.1,1.8,0.4c0.6,0.2,1.1,0.6,1.5,1.1c0.1,0.1,0.1,0.2,0.1,0.4S222.4,271.4,222.4,271.7z"/>
	<path class="st2" d="M232.8,277.7c-0.2,0.5-0.6,1.1-1,1.6c-0.4,0.5-0.9,1-1.3,1.3c-0.5,0.4-1,0.7-1.2,0.9c-0.4,0.1-0.5,0.4-0.7,0.4
		c-0.1,0.1-0.5,0.2-1,0.4c-0.5,0.1-0.9,0.2-1.1,0.2c-0.2,0-0.4,0-0.6,0c-0.1,0-0.4,0-0.4,0s-0.4-0.1-0.6-0.2c-0.5-0.1-0.9-0.4-1-0.5
		c-0.2-0.1-0.5-0.5-0.9-0.9c-0.4-0.5-0.6-0.9-0.7-1.2c-0.1-0.4-0.2-0.7-0.2-1.2c-0.1-0.7-0.1-1.3,0-1.7c0.1-0.4,0.1-0.7,0.2-1
		c0-0.2,0.2-0.7,0.4-1.5c0.1-0.7,0.5-1.2,0.7-1.7c0.4-0.7,0.9-1.6,1.5-2.5s1.2-1.5,1.7-2c0.5-0.4,1-0.6,1.2-0.6s0.6,0,0.9,0.1
		c0.2,0.1,0.6,0.4,1,0.6c0.4,0.4,0.7,1,1,2c0.1,0.6,0.1,1.1,0.1,1.5s-0.1,0.7-0.1,1c-0.1,0.2-0.2,0.5-0.4,0.7
		c-0.4,0.6-0.9,1.3-1.6,2.2c-0.7,0.9-1.3,1.5-1.8,2c-0.5,0.4-0.9,0.7-1.1,1s-0.4,0.4-0.6,0.6c0.1,0.1,0.2,0.2,0.4,0.5
		c0.1,0.2,0.4,0.4,0.6,0.5c0.1,0.1,0.4,0.1,0.5,0.1c0.2,0,0.4,0,0.5,0c0.1,0,0.4,0,0.5,0c0.1,0,0.4-0.1,0.6-0.1
		c0.5-0.1,1.2-0.5,2.2-1c1-0.5,1.7-0.9,2.1-1.1C232.5,277.7,232.7,277.7,232.8,277.7z M227.6,270.9c-0.5,0.4-0.7,0.7-1,1.1
		c-0.2,0.4-0.6,0.9-1,1.6c-0.4,0.7-0.7,1.5-1,2.2c0.2-0.2,0.6-0.6,0.9-1c0.2-0.4,0.5-0.6,0.7-1c0.2-0.4,0.5-0.7,0.9-1.2
		C227.3,272.1,227.4,271.5,227.6,270.9z"/>
</g>
</svg>
