<?xml version="1.0" encoding="UTF-8"?><!DOCTYPE svg PUBLIC "-//W3C//DTD SVG 1.1//EN" "http://www.w3.org/Graphics/SVG/1.1/DTD/svg11.dtd"><svg xmlns="http://www.w3.org/2000/svg" xmlns:xlink="http://www.w3.org/1999/xlink"><symbol id="calendar" viewBox="0 0 58 58"><path d="M42.899 4.5A5.009 5.009 0 0 0 38 .5a1 1 0 1 0 0 2c1.654 0 3 1.346 3 3s-1.346 3-3 3a1 1 0 1 0 0 2 5.01 5.01 0 0 0 4.899-4H56v9H2v-9h17a1 1 0 1 0 0-2h-1.816A2.995 2.995 0 0 1 20 2.5c1.654 0 3 1.346 3 3s-1.346 3-3 3a1 1 0 1 0 0 2c2.757 0 5-2.243 5-5s-2.243-5-5-5a5.01 5.01 0 0 0-4.899 4H0v53h58v-53H42.899zM56 55.5H2v-38h54v38z"/><path d="M26 2.5c1.654 0 3 1.346 3 3s-1.346 3-3 3a1 1 0 1 0 0 2c2.757 0 5-2.243 5-5s-2.243-5-5-5a1 1 0 1 0 0 2z"/><path d="M32 2.5c1.654 0 3 1.346 3 3s-1.346 3-3 3a1 1 0 1 0 0 2c2.757 0 5-2.243 5-5s-2.243-5-5-5a1 1 0 1 0 0 2z"/><circle cx="22" cy="24.5" r="1"/><circle cx="29" cy="24.5" r="1"/><circle cx="36" cy="24.5" r="1"/><circle cx="43" cy="24.5" r="1"/><circle cx="50" cy="24.5" r="1"/><circle cx="8" cy="32.5" r="1"/><circle cx="15" cy="32.5" r="1"/><circle cx="22" cy="32.5" r="1"/><circle cx="29" cy="32.5" r="1"/><circle cx="36" cy="32.5" r="1"/><circle cx="43" cy="32.5" r="1"/><circle cx="50" cy="32.5" r="1"/><circle cx="8" cy="39.5" r="1"/><circle cx="15" cy="39.5" r="1"/><circle cx="22" cy="39.5" r="1"/><circle cx="29" cy="39.5" r="1"/><circle cx="36" cy="39.5" r="1"/><circle cx="43" cy="39.5" r="1"/><circle cx="50" cy="39.5" r="1"/><circle cx="8" cy="47.5" r="1"/><circle cx="15" cy="47.5" r="1"/><circle cx="22" cy="47.5" r="1"/><circle cx="29" cy="47.5" r="1"/><circle cx="36" cy="47.5" r="1"/></symbol><symbol id="logo" viewBox="0 0 250 296"><style>.st0{fill:#fff;stroke:#fff;stroke-miterlimit:10}.st1{enable-background:new}.st2{fill:#fff}</style><path class="st0" d="M205.3 87.6c3.1-3.3 7-6.2 5.7-11.5-.2-.5.4-1.4.8-1.7 2.1-1.3 1.7-2.5 0-3.9-.8-.7-1.5-1.7-1.8-2.8-1.2-5.1-2.2-10.3-3.4-15.3-.4-1.4-.2-2.2.7-3.4 2.2-3.1 4.3-6.4 5.7-9.8 1.7-4.5 1.4-9.3-1.3-13.5-1.7-2.6-3.1-2.7-4.9-.1-1.1 1.6-2.1 3.1-2.8 4.9-1.1 3.1-2.1 6.2-3 9.4-2.6-3.2-5.2-6.4-7.9-9.5 4.6-5.3 5.1-11.1 1.5-17-.9-1.5-2-3-3.1-4.3-.7-.7-2.1-1.7-2.9-1.5-.8.2-1.6 1.8-1.7 2.8-.2 5-.1 10-.1 15.5-.8-1-1.6-1.9-2.3-2.9-1.1-1.6-1.9-3.5-3.1-4.9-6.2-7.5-20.1-10.8-29.5-7.2-1.1.4-2.7 1.6-2.7 2.2.1 1.1 1.1 2.5 2.2 3.1 10 5.5 20.7 8.4 32.1 9.1.7.1 1.5.7 1.9 1-2.8 0-5.7-.4-8.4.1-4.2.8-8.3 2.3-12.4 3.6-2.1.7-1.7 2.1-1 3.6 1.7 3.4 6.1 5.6 10.3 4.4 5.6-1.4 11.1-3.3 17.1-5.2 2.2 3.5 4.8 7.6 7.3 11.7l-.6.6c-5.9-2.8-12.1-2.5-18.2-1.3-.9.2-2.2 1.1-2.2 1.8-.1.7.8 1.9 1.6 2.5 1 .8 2.2 1.3 3.4 1.8 6 2.6 12.2 4 19.2 2.8 1 4.5 1.9 8.8 3 13.8-3.4-2.2-6.3-4-9.1-5.7-8.9-5.6-18-6.2-27.1-1.1-4 2.2-7.9 5-11.6 7.9-2.6 2.1-4.8 4.8-7.3 7.3-.6-1.3-1.1-2.4-1.5-3.4-5.3-11.3-13.4-19.7-25.3-24.3-10.7-4-21.8-5.3-32.9-7.1-.9-.2-1.9.7-2.9 1.1.4 1 .6 2.1 1.3 2.8 2.1 2.2 4.5 4 6.4 6.3 4.3 5.2 6.6 11.2 6.1 18.3-13.9 1.7-27.7 3.1-41.7 2-7.3-.6-14.3-2.2-20.8-5.5-2.7-1.3-4.3-.2-3.7 2.8 1 4.3 1.8 8.9 3.9 12.9 9.9 19.3 26.3 30.5 46.8 36.2 4.4 1.3 9.1 1.6 13.9 2.3-3.1 5.5-5.3 11.2-11 15-10.7 7.5-20.9 15.5-31.4 23.4-.9.7-2.1 2.1-2 3 .2.9 1.6 1.9 2.7 2.3 8.9 3.7 17.9 7.3 26.8 11 2.2.9 3.6.5 4.9-1.5 4.3-6.7 8.8-13.3 13-20.1 1.1-1.6 2.2-2.2 4-2.2 10.7.3 21.4 0 31.9-2.2 16.2-3.4 28.6-11.7 35.2-27.2 3.1-7.5 5.2-15.4 7.2-23.3.9-3.4 2.1-6.7 4.8-9 3.4-3.1 7.1-6.1 11.1-8.6 2.6-1.7 5.8-2.7 9.1-4.2v11.9z"/><path class="st0" d="M205.3 87.6V75.5c-3.3 1.5-6.5 2.5-9.1 4.2-3.9 2.5-7.5 5.5-11.1 8.6-2.6 2.3-3.9 5.6-4.8 9-2.1 7.9-4.1 15.8-7.2 23.3-6.5 15.6-18.9 23.9-35.2 27.2-10.6 2.2-21.2 2.5-31.9 2.2-1.9-.1-3.1.5-4 2.2-4.3 6.7-8.8 13.3-13 20.1-1.3 2.1-2.6 2.5-4.9 1.5-8.9-3.8-17.9-7.3-26.8-11-1.1-.4-2.5-1.4-2.7-2.3-.2-.9 1.1-2.2 2-3 10.3-7.9 20.7-15.9 31.4-23.4 5.6-3.9 7.8-9.5 11-15-4.9-.7-9.5-1.1-13.9-2.3-20.6-5.6-37-16.7-46.9-36.1-2.1-3.9-2.9-8.4-3.9-12.9-.7-3 1.1-4.1 3.7-2.8 6.6 3.4 13.5 4.9 20.8 5.5 13.9 1.1 27.7-.2 41.7-2 .5-7.1-1.7-13-6.1-18.3-1.9-2.3-4.3-4.1-6.4-6.3-.7-.7-.8-1.9-1.3-2.8 1-.4 2.1-1.3 2.9-1.1 11.2 1.7 22.2 3.1 32.9 7.1 12 4.5 20.1 12.9 25.3 24.3.4 1 .9 2.1 1.5 3.4 2.5-2.5 4.7-5.2 7.3-7.3 3.7-2.9 7.5-5.7 11.6-7.9 9.2-5 18.3-4.5 27.1 1.1 2.9 1.8 5.7 3.5 9.1 5.7-1.1-4.9-2-9.3-3-13.8-6.9 1.2-13.1-.1-19.2-2.8-1.2-.5-2.5-1.1-3.4-1.8-.7-.6-1.7-1.7-1.6-2.5.1-.7 1.3-1.6 2.2-1.8 6.2-1.3 12.2-1.5 18.2 1.3l.6-.6c-2.5-4.1-5.1-8.3-7.3-11.7-6.1 1.9-11.6 3.8-17.1 5.2-4.3 1.1-8.6-1.1-10.3-4.4-.7-1.5-1.1-3 1-3.6 4.1-1.3 8.2-2.8 12.4-3.6 2.8-.5 5.7-.1 8.4-.1-.4-.2-1.1-.9-1.9-1-11.3-.7-22.1-3.6-32.1-9.1-1.1-.6-2.1-2.1-2.2-3.1-.1-.7 1.6-1.9 2.7-2.2 9.4-3.6 23.4-.2 29.5 7.2 1.2 1.5 2.1 3.4 3.1 4.9.7 1 1.5 1.9 2.3 2.9 0-5.4-.1-10.4.1-15.5 0-1 .9-2.5 1.7-2.8.7-.2 2.2.7 2.9 1.5 1.2 1.3 2.2 2.8 3.1 4.3 3.6 5.9 3.1 11.6-1.5 17 2.6 3.2 5.2 6.3 7.9 9.5 1-3.1 1.8-6.4 3-9.4.7-1.7 1.7-3.3 2.8-4.9 1.7-2.5 3.1-2.5 4.9.1 2.7 4.3 3 9 1.3 13.5-1.3 3.5-3.5 6.7-5.7 9.8-.8 1.2-1.1 2.1-.7 3.4 1.3 5.1 2.2 10.3 3.4 15.3.2 1.1 1 2.1 1.8 2.8 1.7 1.4 2.2 2.5 0 3.9-.4.3-1 1.3-.8 1.7 1.4 5.3-2.5 8.2-5.6 11.6zm-166.7-18c1.1 3.2 1.8 5.8 2.8 8.1 4.8 11.2 13 19.4 23 25.8 11.2 7.2 23.4 12 37 11.5 2.4-.1 3.4 1.4 2.2 3.7-2.1 4-4.1 8-6.5 11.9-.9 1.6-2.2 3.1-3.6 4.1-5.3 4.1-10.8 8.1-16.2 12.1-5.7 4.2-11.2 8.4-17.2 13 8.8 3.5 17.1 6.9 25.4 10.3 4.9-7.4 9.6-14.5 14.2-21.6 1.1-1.8 2.4-2.4 4.6-2.3 11 .4 21.9 0 32.8-2.1 16.1-3.1 27.6-12 33.5-27.3 2.5-6.6 3.9-13.7 6.2-20.4 1.1-3.4 2.5-6.9 4.8-9.7 4-5 9.1-8.9 15.2-11.2 2.7-1.1 5.3-2.3 8.6-3.8-5.8-3.4-10.9-6.8-16.4-9.6-4.5-2.3-9.3-2.3-14.3-.7-9.6 3.2-16.7 9.8-23.3 17.1-2.8 3.1-3.8 3-5.2-1.1-3.9-10.5-10.1-19-20.3-24.2-9.4-4.9-19.9-6.4-30.3-8.1.1.4 0 .6.2.7.4.5.8 1.1 1.2 1.6 4.8 6.4 8.1 13.2 7.5 21.6-.2 2.5-1 3.5-3.4 3.8-6.8.5-13.6 1.3-20.4 1.9-13.9.7-27.9.8-42.1-5.1z"/><path class="st0" d="M38.6 69.6c14.2 5.9 28 5.8 42.2 4.9 6.8-.4 13.7-1.3 20.4-1.9 2.5-.2 3.3-1.3 3.4-3.8.5-8.3-2.9-15.2-7.5-21.6-.4-.5-.8-1.1-1.2-1.6-.1-.2-.1-.4-.2-.7 10.4 1.7 20.8 3.3 30.3 8.1 10.2 5.2 16.5 13.7 20.3 24.2 1.4 4 2.5 4.1 5.2 1.1 6.6-7.4 13.7-13.9 23.3-17.1 4.9-1.6 9.8-1.6 14.3.7 5.5 2.9 10.6 6.2 16.4 9.6-3.4 1.5-6 2.7-8.6 3.8-6.1 2.4-11.2 6.2-15.2 11.2-2.2 2.8-3.6 6.3-4.8 9.7-2.2 6.7-3.6 13.8-6.2 20.4-5.8 15.4-17.4 24.3-33.5 27.3-10.8 2.1-21.8 2.5-32.8 2.1-2.2-.1-3.4.5-4.6 2.3-4.6 7.2-9.3 14.3-14.2 21.6-8.4-3.4-16.6-6.7-25.4-10.3 6-4.5 11.6-8.7 17.2-13 5.4-4 10.9-8 16.2-12.1 1.4-1.1 2.7-2.6 3.6-4.1 2.2-3.9 4.4-7.8 6.5-11.9 1.1-2.2.2-3.8-2.2-3.7-13.7.4-25.8-4.3-37-11.5-10.1-6.5-18.3-14.7-23-25.8-1.1-2.1-1.8-4.7-2.9-7.9zm146.6-6.5c-1.7 1.8-3.5 2.9-3.8 4.1-.4 2.3 1.7 3.1 3.8 3.1 2 .1 4-.7 3.8-2.8-.3-1.3-2.2-2.5-3.8-4.4z"/><g class="st1"><path class="st2" d="M10.4 208.8l-.8.1-1.2-.6c-.2-.6-.4-1.1-.4-1.7 0-1.3.7-2.2 2.1-2.8 1-.3 2.2-.6 3.9-.6 3.9 0 7.6.7 10.9 1.9 4.7 1.7 7 4.1 7 7.4 0 1.9-.8 3.6-2.5 5-1.2 1.1-3 2.1-5.1 2.9 2.2.9 3.9 1.9 5 3.2 1.3 1.5 2 3.3 2 5.6 0 3.5-1.6 6.1-4.8 8-2.7 1.6-5.9 2.5-9.6 2.5-3.3 0-5.7-.7-7-2-1.1-1.1-1.7-2.8-1.7-5.2 0-1.1 0-2.1.1-3.1.2-3.5.4-5.6.4-6.1-.3-.4-.6-.8-.7-1.2s0-.8 0-1.2c0-.9.4-1.6 1.3-1.9 0-1.5.1-3.1.3-4.9.3-1.8.6-3.5.8-5.3zm3.7 23.6c0 .8.2 1.3.6 1.7.3.3 1.3.6 2.8.6 2 0 3.9-.4 5.5-1.2 2-1 3.1-2.5 3.1-4.2 0-1.8-1.2-3.1-3.6-4.1-1.8-.8-3.7-1.1-5.8-1.1-.7 0-1.3.1-2.1.3 0 .9-.1 2.2-.2 4.1-.2 1.5-.3 3-.3 3.9zm12.4-19.8c0-1.3-1.5-2.3-4.4-3.1-2.1-.6-4.1-.8-6.1-.8-.2 1.3-.4 2.9-.7 4.7-.2 1.7-.3 3.2-.3 4.7 1.9 0 4.1-.4 6.7-1.5 3.2-1.1 4.8-2.4 4.8-4zM42.8 237.9c0 .6-.3 1-1 1.3-.7.3-1.3.6-1.9.6-1.8 0-2.9-.8-3.5-2.5-.3-.9-.4-2.5-.4-4.7 0-2.8.1-5.9.3-9.3.2-3.3.6-6.8.8-10.4.3-3.6.4-6.6.4-8.9 0-.6.3-1 .9-1.3.6-.3 1.2-.4 1.8-.4.9 0 1.8.3 2.6.9.9.6 1.2 1.3 1.2 2.2 0 1-.1 2.1-.3 3.3-.2 1.2-.3 2.3-.6 3.5-.9 7.5-1.3 15-1.3 22.4 0 .3.1.8.2 1.3.6 1.1.8 1.8.8 2zM49.9 208.8l-.8.1-1.2-.6c-.2-.6-.4-1.1-.4-1.7 0-1.3.7-2.2 2.1-2.8 1-.3 2.2-.6 3.9-.6 3.9 0 7.6.7 10.9 1.9 4.7 1.7 7 4.1 7 7.4 0 1.9-.8 3.6-2.5 5-1.2 1.1-3 2.1-5.1 2.9 2.2.9 3.9 1.9 5 3.2 1.3 1.5 2 3.3 2 5.6 0 3.5-1.6 6.1-4.8 8-2.7 1.6-5.9 2.5-9.6 2.5-3.3 0-5.7-.7-7-2-1.1-1.1-1.7-2.8-1.7-5.2 0-1.1 0-2.1.1-3.1.2-3.5.4-5.6.4-6.1-.3-.4-.6-.8-.7-1.2s-.2-.8-.2-1.2c0-.9.4-1.6 1.3-1.9 0-1.5.1-3.1.3-4.9.6-1.8.8-3.5 1-5.3zm3.7 23.6c0 .8.2 1.3.6 1.7.3.3 1.3.6 2.8.6 2 0 3.9-.4 5.5-1.2 2-1 3.1-2.5 3.1-4.2 0-1.8-1.2-3.1-3.6-4.1-1.8-.8-3.7-1.1-5.8-1.1-.7 0-1.3.1-2.1.3 0 .9-.1 2.2-.2 4.1-.2 1.5-.3 3-.3 3.9zM66 212.6c0-1.3-1.5-2.3-4.4-3.1-2.1-.6-4.1-.8-6.1-.8-.2 1.3-.4 2.9-.7 4.7-.2 1.7-.3 3.2-.3 4.7 1.9 0 4.1-.4 6.7-1.5 3.2-1.1 4.8-2.4 4.8-4zM88.8 233.4c1.7 0 3 .2 4 .6 1.5.6 2.2 1.6 2.2 3 0 .6-.2 1.2-.6 1.9-.3.7-.8 1-1.3 1-.6 0-1.2-.1-2.1-.2-2-.3-3.2-.6-3.7-.6-1.2 0-3.1.1-5.6.4-2.5.2-4.2.4-5.5.4-.7 0-1.3-.2-1.8-.8s-.8-1.1-.8-1.8c0-1 .4-1.7 1.5-2.2V233c0-2.8.1-5.8.3-9.3.2-3.5.6-6.9.8-10.6.3-3.7.4-6.6.4-8.8 0-.6.3-1 .9-1.3.6-.3 1.1-.4 1.8-.4 1 0 1.9.2 2.7.8.9.6 1.2 1.2 1.2 2.1 0 2.6-.2 5.8-.7 9.8-1 8.6-1.5 14.2-1.5 16.6v2.1c.9 0 2.1-.1 3.9-.2 1.8-.3 3-.4 3.9-.4zM103.9 230.9c0 .7.1 1.5.3 2.2.2.2.9.3 1.8.4s1.6.1 1.8.1h2.3c.8 0 1.7-.1 2.6-.2 1.8 0 3.2.1 4.1.4 1.6.6 2.5 1.6 2.5 3 0 .4-.1.9-.3 1.3s-.4.9-.8 1.2l-.9.4c-.7 0-1.5 0-2.1-.2-2.1-.3-3.3-.6-3.7-.6-1.3 0-2.8 0-4.2.2-4.2.3-6.5.6-6.9.6-1 0-1.8-.7-2.1-1.9-.3-1.2-.6-2.9-.6-5 0-1.1 0-2.1.1-3 0-.9.1-1.9.2-3-.4-.7-.8-1.1-.9-1.5-.2-.6-.3-1.1-.3-1.7 0-.4.1-.9.3-1.2.2-.3.7-.6 1.2-.9 0-2 .2-4.2.6-6.6.3-2.3.7-4.6 1-6.8-.1-.2-.2-.6-.4-1.1-.2-.6-.3-.9-.3-1.1 0-1.6 1.7-2.7 5.1-3.2 1.7-.2 4-.4 6.9-.4 3 0 5 .2 6.1.8s1.7 1.3 1.7 2.7c0 .6-.2 1.2-.8 2-.4.8-1 1.1-1.5.9-.6-.2-1.1-.3-1.7-.4-.6 0-1.3-.1-2.3-.1h-1.2c-.4 0-.8 0-1.2-.1-1 0-1.9.1-2.7.2-.8.1-1.5.4-2 .8-.3.8-.6 2.7-.9 5.5-.2 2.9-.4 4.9-.4 6.1.6 0 1.5 0 2.7-.1 1.1-.1 2-.1 2.7-.1 2.1 0 3.7.1 4.6.3 1.8.4 2.8 1.5 2.8 3s-.7 2.3-2 2.8c-1.5-.3-2.9-.6-4.4-.6-.8 0-1.9 0-3.3.2-1.5.1-2.6.1-3.3.1 0 .4 0 1.3-.1 2.6 0 1.3-.1 2-.1 2zM136.2 229.7c0 2.8.3 5.6.9 8.4-.2.7-.7 1.1-1.2 1.5-.6.3-1.3.4-2.1.4-1.5 0-2.5-.8-3-2.3-.3-1.1-.6-2.6-.6-4.6v-1.3c0-2.3.1-4.8.3-7.5.2-2.7.3-5.4.6-8.4.2-2.9.3-5.2.3-7.1-.9 0-1.7 0-2.3.1-2.3.2-3.7.3-3.9.3l-1.3-.2c-.7-.6-1.1-1.1-1.3-1.6-.2-.4-.3-1.1-.3-1.8 0-1 .2-1.8.7-2.1.4-.3 1.1-.6 2-.6h1.9c1.6 0 5.1-.2 10.5-.7 2.7-.2 4.8-.3 6.4-.3 1.5 0 2.5.2 3.2.6 1 .4 1.6 1.3 1.6 2.7 0 1.1-.2 1.8-.7 2.2s-1.1.7-1.9.7c-.4 0-1.1 0-1.9-.1-.8-.1-1.2-.1-1.5-.1-1.6 0-3.1.1-4.7.4-.4 3.8-.8 7.4-1.1 10.9-.5 3.7-.6 7.1-.6 10.5zM164.9 203.3c3 0 5.4 1.9 6.9 5.6 1.1 2.8 1.8 5.9 1.8 9.5 0 5.4-.9 10-2.8 14-2.5 5-6 7.6-10.8 7.6-3.8 0-6.6-1.7-8.5-5.1-1.5-2.7-2.2-6.1-2.2-10.3 0-3.8 1-8.3 2.9-13.5 2.3-6.4 5-9.6 8.1-9.6.7 0 1.2.2 1.7.7.4.4.9.9 1.2 1.6.3 0 .6-.1.9-.1.1-.4.5-.4.8-.4zm-9.6 21.2c0 2.5.2 4.5.8 6 .8 2.5 2.2 3.7 4.1 3.7 3.1 0 5.2-3.2 6.5-9.6.4-2.6.8-5 .8-7.3 0-2.5-.2-4.4-.6-5.6-.7-2.3-1.9-3.6-3.8-3.6-1.6 0-2.8 1-3.7 2.9-.9 1.9-1.8 2.9-2.5 2.9-.6 1.7-1 3.3-1.3 5.1-.1 2-.3 3.8-.3 5.5zM179.9 209c-.6-.2-1.1-.6-1.5-.9-.3-.3-.6-.9-.6-1.5 0-.9.7-1.8 1.9-2.7 1.2-1 2.3-1.5 3.2-1.5.9 0 1.7.3 2.3 1.1 5.6.4 9.6 1.8 12.3 3.9 2.2 1.8 3.3 4 3.3 6.8s-1.2 5.1-3.6 7c-3 2.5-7.4 4.1-13.1 5 0 .8 0 2-.1 3.7-.1 1.7-.1 2.9-.1 3.7 0 .6.2 1.5.6 2.7.2.7.3 1.1.3 1.6-.4 1.2-1.3 1.9-2.9 1.9-1.6 0-2.6-.8-3.2-2.5-.4-1.2-.8-3-.8-5.4 0-1.2 0-2.3.1-3.3 0-1 .1-2 .2-3.3-.4-.6-.7-1-.9-1.3-.2-.4-.3-1-.3-1.5l.3-1 1.2-.6c0-1.8.2-4.4.6-7.6.5-2 .7-3.5.8-4.3zm15.6 5.1c0-1.6-1-2.9-3.1-3.8-1.6-.7-3.3-1.1-5.2-1.1H186c-.3 2.6-.6 4.5-.8 5.7-.2 2.2-.4 4.1-.4 5.7 2.2-.2 4.4-.9 6.6-1.9 2.6-1.3 4.1-2.9 4.1-4.6zM211.5 237.9c0 .6-.3 1-1 1.3-.7.3-1.3.6-1.9.6-1.8 0-2.9-.8-3.5-2.5-.3-.9-.4-2.5-.4-4.7 0-2.8.1-5.9.4-9.3.2-3.3.6-6.8.8-10.4.3-3.6.4-6.6.4-8.9 0-.6.3-1 .9-1.3.6-.3 1.2-.4 1.8-.4.9 0 1.8.3 2.6.9.9.6 1.2 1.3 1.2 2.2 0 1-.1 2.1-.3 3.3-.2 1.2-.3 2.3-.6 3.5-.9 7.5-1.3 15-1.3 22.4 0 .3.1.8.2 1.3.4 1.1.7 1.8.7 2zM240 228.6c0 1.6-.7 2.3-1.9 2.3h-.7c.4 1.2.8 2.2 1 2.8.3 1 .8 1.9 1.3 2.8 0 .1.1.3.3.7.1.3.2.6.2.7 0 .7-.3 1.2-.9 1.7s-1.2.7-1.9.7c-1.9 0-3.3-1.7-4.5-5-.1-.4-.6-1.8-1.1-4.1h-4.7c-2.6 0-4.2.3-4.9 1-.8.9-1.2 2.9-1.2 6.1 0 .6-.2 1-.8 1.3-.6.3-1.1.6-1.6.6-.9 0-1.7-.3-2.3-1-.6-.7-.9-1.5-.9-2.5s.8-4.1 2.3-9.5 3.1-10 4.7-14.3c1.9-5.1 3.2-8.1 4-9 .6-.6 1.3-.9 2.3-.9 1.1 0 2.1.6 2.9 1.6.1.1.6 2.5 1.5 7 .9 4.6 1.8 9.3 2.7 14.2 1.6.2 2.7.7 3.2 1.2.8 0 1 .8 1 1.6zm-12-14.4c-.8 1.9-1.5 3.8-2.1 5.6-.7 1.9-1.2 3.8-1.9 5.9 1.1-.1 2.1-.2 3.1-.3 1-.1 2.1-.1 3.2-.1-.2-1.1-.6-3-1.2-5.5-.5-2.5-.9-4.3-1.1-5.6z"/></g><g class="st1"><path class="st2" d="M38 258.7c-.1.1-.4.1-.6.2-.2.1-.5.1-.7.2-.2.1-.6.1-1.2.4-.6.1-1 .2-1.1.2-1 .1-2 .2-2.7.4-.9.1-1.7.4-2.6.6 0 .4-.1.7-.1 1.2-.1.5-.1.9-.2 1.3 0 .2-.1.5-.1.7 0 .2-.1.4-.1.5-.1.4-.1.7-.2 1.1-.1.4-.1.7-.2 1.1-.1.4-.1.9-.2 1.3-.1.5-.2 1-.4 1.6s-.2 1.1-.2 1.6c-.1.5-.1 1-.1 1.3l-1.6 9c-.1.4-.4.6-.6.7-.4.1-.6.1-.7.1s-.2-.1-.5-.2c-.2-.1-.4-.7-.4-1.6 0-.6.1-1.3.1-2s.1-1.2.1-2v-1-1.2c.1-1.3.2-2.7.5-4 .1-1.3.4-2.7.6-4l1.1-5.6h-1.2c-.1 0-.5.1-.7.1-.4 0-.7.1-1.1.2-.4.1-.9.1-1.2.1-.4 0-.9 0-1.3.1-.5.1-.9 0-1.2 0-.4 0-.6-.1-1-.2s-.7-.2-1.1-.5c-.4-.2-.7-.5-.9-.7-.1-.2-.2-.5-.2-.6v-.9-.2c0-.1.1-.1.2-.1h1.1c.2 0 .6 0 1.1-.1.5-.1 3.4-.4 8.6-.9.2 0 1-.1 1.8-.1 1 0 1.7-.1 2.5-.1.6 0 1.3 0 2 .1.6.1 1.3.1 2.2.2.7.1 1.7.2 2.8.5 0 .5.1.8-.3 1.2zM39.3 273.9c0 1.2-.4 2.5-1.2 3.7s-1.5 2.1-2.1 2.7-1.1 1-1.5 1.3c-.7.5-1.5.7-2.1.7-.5 0-1-.1-1.3-.4-.4-.2-.6-.4-.9-.6-.2-.2-.4-.4-.5-.6-.1-.2-.2-.5-.4-.7-.1-.2-.2-.5-.2-.9v-.5c0-.4.1-.9.2-1.3.1-.5.4-1 .5-1.5.1-.5.5-1.1.7-1.7.4-.7.6-1.1.7-1.3s.2-.4.4-.5c.1-.1.2-.4.5-.6.2-.2.6-.7 1.1-1.5-.2 0-.4 0-.5-.1-.1-.4-.1-.6.1-.9.2-.2.5-.5.9-.6.4-.1.6-.4.9-.4.2-.1.5-.1.6-.1h.4c.1 0 .2.1.4.1.1.1.4.2.7.4l1.1 1.1c.5.5.9 1.2 1.1 2 .3.8.4 1.5.4 2.2zm-3.2-2.3c-.6.7-1.3 1.7-2.1 3.1-.7 1.3-1.2 2.3-1.3 2.7-.1.4-.2.7-.2 1 .4-.1.7-.2 1.1-.5.4-.2.7-.5 1-.7.2-.2.5-.5.6-.9.2-.2.4-.6.6-1 .2-.4.4-.9.6-1.5.2-.4.1-1.2-.3-2.2zM58.9 277.7c-.2.5-.6 1.1-1 1.6s-.9 1-1.3 1.3c-.5.4-1 .7-1.2.9-.4.1-.5.4-.7.4-.1.1-.5.2-1 .4-.5.1-.9.2-1.1.2h-1c-.1 0-.4-.1-.6-.2-.5-.1-.9-.4-1-.5-.2-.1-.5-.5-.9-.9-.4-.5-.6-.9-.7-1.2-.1-.4-.2-.7-.2-1.2-.1-.7-.1-1.3 0-1.7.1-.4.1-.7.2-1 0-.2.2-.7.4-1.5.1-.7.5-1.2.7-1.7.4-.7.9-1.6 1.5-2.5.6-.9 1.2-1.5 1.7-2 .5-.4 1-.6 1.2-.6s.6 0 .9.1.6.4 1 .6c.4.4.7 1 1 2 .1.6.1 1.1.1 1.5s-.1.7-.1 1c-.1.2-.2.5-.4.7-.4.6-.9 1.3-1.6 2.2-.7.9-1.3 1.5-1.8 2-.5.4-.9.7-1.1 1l-.6.6c.1.1.2.2.4.5.1.2.4.4.6.5.1.1.4.1.5.1h1c.1 0 .4-.1.6-.1.5-.1 1.2-.5 2.2-1 1-.5 1.7-.9 2.1-1.1-.1-.4 0-.4.2-.4zm-5.4-6.8c-.5.4-.7.7-1 1.1-.2.4-.6.9-1 1.6-.4.7-.7 1.5-1 2.2.2-.2.6-.6.9-1 .2-.4.5-.6.7-1 .2-.4.5-.7.9-1.2s.5-1.1.5-1.7z"/><path class="st2" d="M70 268.2c0 .2-.1.6-.4 1.1-.2.5-.6.9-.9 1.2-.4.4-.6.7-.9 1.1-.2.4-.5.5-.5.6-.1.1-.2.4-.5.6-.2.2-.6.7-1 1.2s-.7 1-1 1.2c-.2.4-.4.6-.4 1.1 0 .6.1 1.3.4 2.2.2.9.5 1.5.6 2 0 .2.1.5.4.9.2.4.5.6.9.9.5.4 1.1.6 1.8.7s1.2.2 1.3.4l.1.2c-.1.1-.2.1-.5.2-.1 0-.4.1-.5.1-.1 0-.4.1-.9.1-.4 0-.9 0-1.3-.1-.1 0-.4-.1-.5-.2-.1-.1-.5-.4-1-.7-.5-.4-1-1-1.6-2-.6-1-1-1.8-1.3-2.7l-5.2 5.2c-.1.1-.2.1-.5 0-.2 0-.5-.2-.7-.6-.2-.4-.4-.6-.4-.9 0-.1.1-.5.5-.9.2-.5.6-1 1.1-1.5.5-.6.9-1.1 1.5-1.8.5-.6 1-1.2 1.5-1.7s.7-1 1.1-1.3c.2-.4.4-.6.4-.7v-.6c0-.4-.1-.7-.1-1.1-.1-.4-.1-.9-.2-1.3 0-.4-.1-.6-.1-.7 0-.1 0-.4-.1-.5 0-.1 0-.4-.1-.5-.1-.1 0-.4-.1-.7 0-.1 0-.1.1-.2s.4-.1.6 0c.4.1.6.2 1 .5.4.2.6.5.9.9.1.1.1.2.2.2 0 .1.1.1.1.2.1.2.1.4.1.6s.1.4.2.6c.2-.2.5-.5.7-.9l1-1c.4-.4.6-.7 1-1.1.2-.4.5-.6.7-.9l.4-.4.2-.2c.1-.1.2-.1.4-.1s.5.1.9.2c.2.1.5.2.6.5.2.2 0 .4 0 .6z"/><path class="st2" d="M81.9 273.1c0 .7-.1 1.5-.5 2.3-.4.9-.7 1.6-1.2 2.5-.5.9-1.1 1.6-1.7 2.2-.6.7-1.2 1.2-2 1.6-.2.1-.5.2-1 .2-.4 0-.9-.2-1.3-.7-.5-.5-.7-1.1-.6-1.8.1-.4.2-.5.5-.7.2-.1.5-.2.7-.4.2-.1.4-.2.6-.5.9-.9 1.6-1.7 2.1-2.7.5-1 .7-1.8 1-2.6-.6 0-1.3.2-2.2.9-.4.2-.7.7-1.2 1.2-.5.6-1 1.2-1.3 2-.1.2-.2.6-.4 1-.1.5-.2 1-.5 1.5-.2.5-.4 1.1-.5 1.6-.1.5-.4 1.2-.5 2.2-.2 1-.4 1.7-.5 2.5-.1.7-.4 1.3-.5 2.1-.1.6-.2 1.3-.4 2 0 .1-.1.4-.1.7-.1.2-.2.5-.6.6-.6.1-1 0-1.3-.4-.2-.2-.5-.6-.6-.9-.1-.4-.1-.7 0-1.1 0-.5.1-1 .2-1.5s.2-.9.2-1c.4-1.1.9-2.8 1.5-5.3s1.1-4.3 1.3-5.6c.2-1.3.5-2.3.7-3.1.1-.7.4-1.5.5-2.3s.4-1.5.5-2.2c.1-.7.4-1.3.5-2.1.1-.7.5-1.1.9-1.1.5 0 .7.1 1 .4.2.2.4.4.4.6.1.2.1.5.2 1v1.8c-.1.7-.2 1.5-.4 2.1-.1.6-.4 1.3-.5 2.2.1-.1.2-.4.5-.7.2-.2.5-.6.9-.9.4-.2.6-.5 1-.7.4-.2.7-.4 1-.4 1 0 1.7.2 2.5.7.6.4.8 1.4 1.1 2.8zM92.9 278.5c0 .4-.1.7-.2 1.2-.1.4-.2.6-.4.7 0 .1-.2.2-.4.6-.2.2-.5.6-1 1-.4.4-.9.6-1.2.7-.1.1-.4.1-.5.2-.2 0-.6.1-1.3.1-.6 0-1.2-.1-1.7-.4-.6-.2-1.1-.6-1.5-1.1-.4-.5-.7-1-1-1.6-.2-.6-.5-1.1-.6-1.7s-.1-1-.1-1.5c0-1.3.1-2.8.5-4 .4-1.3.7-2.7 1.1-4.3.4-1.5.7-2.5.9-2.9.1-.5.4-1.1.6-1.8.2-.7.5-1.5.9-2.2.1-.2.2-.7.5-1.2.2-.6.4-1 .6-1.2.1-.2.2-.5.5-.9.1-.2.4-.4.5-.4.2 0 .6 0 1 .1s.6.4.9.7c.1.2.1.5.1.6 0 .2-1.2 4-3.6 11.5-.1.6-.4 1.1-.4 1.5s-.2.7-.2 1.1c-.1.4-.1.7-.2 1.1-.1.5-.1.9-.2 1.3-.1.5-.1 1-.2 1.3 0 .5-.1.7-.1 1v.7c0 .4.1.9.4 1.2.2.2.6.4 1.1.4.2 0 .6 0 1-.1s1-.2 1.7-.6 1.2-.5 1.5-.7c.2-.1.6-.4.9-.5-.2.3 0 .2.1.1z"/><path class="st2" d="M107.5 278.2c-.2.4-.5.9-.9 1.3-.2.5-.5.9-.9 1.3s-.7.7-1.1 1c-.5.2-1 .5-1.6.5-.5 0-1 0-1.5-.2s-.9-.5-1.3-1-.7-1-1-1.7c-.2-.7-.5-1.5-.5-2.5 0 0-.1.2-.4.7-.2.5-.5 1-.9 1.5-.4.6-.7 1.1-1.1 1.7-.4.5-.9 1-1.2 1.1-.2.1-.5.1-.7.1h-.5c-.2 0-.6-.1-.9-.2-.2-.1-.5-.4-.6-.6s-.4-.5-.4-.9-.1-.6-.1-1c0-.5.1-.9.2-1.3.1-.5.2-.7.4-1 .5-1.2 1.1-2.5 1.8-3.7s1.6-2.5 2.6-3.6l1.3-1.3c.5-.4 1-.6 1.6-.7h.6c.2 0 .4.2.5.5.1.2.1.6 0 .9-.1.2-.2.5-.5.6.4 0 .7.1 1.1.2.4.1.7.2 1 .5.2.2.4.5.5.7 0 .2.1.5.1.7 0 .4-.1.9-.2 1.5s-.2 1.1-.5 1.6c-.2.6-.4 1.2-.5 1.8s-.2 1.1-.4 1.6c0 .2-.1.6-.1 1s0 .6.1 1c.1.1.4.2.7.2.4 0 .6-.1 1.1-.2.4-.1.7-.4 1.2-.5.4-.2.7-.4 1.1-.6.4-.2.7-.4 1-.6.6-.2.8-.4.9-.4zm-7.7-7.6c-.5.4-1 .7-1.3 1.3-.5.6-.9 1.2-1.2 2-.4.6-.6 1.3-.9 2-.2.6-.5 1.2-.5 1.6.4-.4.7-.9 1.1-1.3s.7-1.1 1.1-1.6c.4-.6.7-1.2 1-1.8.3-.7.6-1.4.7-2.2z"/><path class="st2" d="M113.9 278.7c-.1.9-.4 1.7-.7 2.3-.5.6-1 1-1.7 1.2-.7.2-1.5.2-2.1.1-.7-.1-1.3-.4-1.7-.6s-.6-.6-1-1.1c-.2-.5-.5-1-.6-1.5-.1-.5-.2-1.2-.1-2.1.1-1.2.4-2.5.7-3.6.4-1.1.5-1.8.7-2.3.2-.5.2-.9.5-1.1.1-.4.2-.5.4-.6.1-.1.2-.1.4-.1h.4c.5 0 1 .1 1.5.6.5.4.7.9.7 1.2-.1.5-.2.9-.2 1 0 .1-.2.6-.5 1.5-.2.7-.5 1.7-.9 2.7-.2 1-.4 1.8-.4 2.6.1 1.6.7 2.1 2 1.7.9-.5 1.9-1.1 2.6-1.9zm-1.3-14.1v1.1c0 .2-.1.4-.2.5-.1.1-.4.2-.7.2-.2 0-.5 0-.7-.1-.2-.1-.4-.2-.5-.2s-.2-.1-.4-.2c-.1-.1-.2-.4-.5-.7-.2-.4-.2-.6-.4-.9-.1-.1-.1-.4-.1-.6 0-.2.1-.4.2-.5.1-.1.4-.1.5-.1.2 0 .4-.1.6-.1.2 0 .4-.1.6-.1h.6c.2 0 .4.1.4.2s.1.2.2.4c0 .1.1.2.1.5.1-.1.3.2.3.6z"/><path class="st2" d="M128 277.7c0 .4 0 1-.2 1.6s-.4 1.1-.6 1.5c-.2.4-.5.7-.9 1-.4.4-.7.6-1 .7-.2.1-.5.1-.7.1h-.6c-.1 0-.4-.1-.6-.1-.2-.1-.5-.2-.7-.4-.2-.1-.5-.2-.6-.4-.1-.1-.4-.4-.5-.6-.2-.2-.4-.6-.5-1-.1-.4-.2-.9-.4-1.3-.1-.5-.2-1-.2-1.5s-.1-1.2 0-2.2c-.6.5-1.2 1.2-1.8 2-.6.9-1 1.5-1.1 1.8-.2.4-.4.7-.5 1-.1.2-.4.6-.5.9-.1.4-.4.6-.5.7s-.4.4-.7.4c-.2 0-.5 0-.7-.1-.2-.1-.4-.2-.5-.4-.1-.1-.2-.4-.4-.6-.1-.2-.1-.4-.2-.6-.1-.2-.1-.5-.1-.9 0-.1 0-.4.1-.7 0-.5.1-.9.1-1.2s.1-.7.2-1.1c.1-.2.1-.5.2-.7.1-.2.1-.6.4-1.2.1-.6.5-1.6 1-2.8.5-1.2.7-2.3 1-2.9.2-.7.4-1.2.5-1.3.1-.1.1-.4.2-.5.1-.1.2-.2.5-.4.2 0 .5 0 .9.1.2.1.5.2.7.4.2.2.2.4.2.6-.4 1.8-.6 3.1-.7 3.7-.1.6-.2 1.1-.2 1.6.2-.5.5-.9.7-1.1.2-.2.5-.5.6-.7.2-.1.4-.4.6-.4.1-.1.4-.1.6-.2.2 0 .5-.1.7 0 .4 0 .5.1.6.1.1 0 .2.1.4.2.1.1.4.2.5.4l.4.4c.2.4.4.6.4.9 0 .1.1.4.1.5v6.7c0 .3.1.4.4.5.4 0 .6 0 .9-.1.2-.1.5-.2.7-.4s.6-.4 1.1-.7c.1-.6.5-.9.7-1.3zM146.2 268.4c.1.6.1 1.2.1 1.7s-.1.9-.4 1.2c-.2.2-.5.5-.9.4-.2 0-.4-.2-.6-.5-.2-.4-.4-.6-.5-.7-.1-.1-.2 0-.2.4v4.4c0 1.3 0 2.6-.2 3.9 0 .4-.1.7-.2 1.2s-.2 1-.4 1.5c-.1.5-.5.9-.7 1.2-.4.4-.7.5-1.2.5-.1 0-.4 0-.6-.1-.2 0-.5-.1-.7-.2s-.4-.2-.5-.4c-.1-.1-.4-.2-.5-.4l-.7-.7c-.4-.4-.6-.7-.9-1.2-.2-.5-.5-1-.6-1.3-.1-.5-.2-.9-.2-1.2 0-.4 0-.7.1-1.1.1-.4.4-.7.6-1 .2-.1.4-.1.4.2 0 .2 0 .9.2 1.7.2.9.5 1.6.9 2.1s.7.9 1.1 1.1c.4.1.5.1.6-.2.1-.4.2-.7.4-1.1.1-.5.2-1.1.4-1.8.1-.7.1-1.8.1-3.4v-4.5c0-1.5.1-2.5.2-3.1.2-.6.5-1 .7-1.2.2-.2.6-.4 1.1-.4s1 .2 1.6.6c.6.4 1 .7 1.3 1.2 0 .4.1.7.2 1.2zM158 276.1c0 .1-.1.4-.2.5-.1.1-.2.2-.4.5-.7 1-1.1 1.5-1.2 1.7-.5.5-.9 1-1.3 1.2-.5.4-1 .7-1.7 1.1-.7.5-1.2.7-1.5.9-.4.1-.6.2-1 .2s-.6.1-.7.1c-.5 0-.9-.1-1.2-.4-.4-.2-.7-.5-1.1-.9-.4-.4-.6-.7-.7-1.1-.2-.4-.2-.7-.4-1.1v-.5-.4c0-.5.1-1.2.2-2.1.1-.9.4-1.6.6-2.3.2-.7.5-1.2.9-1.8.2-.6.6-1.1 1.1-1.7.5-.6.9-1 1.2-1.3.4-.4.7-.6 1-.7.2-.1.5-.2.6-.2.4 0 .7 0 .9.1.2.1.4.1.5.2.1.1.4.2.7.5.2.2.5.5.6.7.1.1.1.4.2.7.1.2.1.5.1.6v.6c0 .1 0 .4-.1.7 0 .2-.1.5-.2.7-.1.2-.2.4-.4.5-.1.1-.4.1-.6.1s-.5-.1-.7-.2c-.2-.1-.4-.2-.4-.5-.1-.1-.1-.4-.1-.6v-.7c-.9.7-1.5 1.5-2 2.3-.5.9-.9 1.7-1.2 2.7-.4.9-.5 1.5-.5 1.8v.7c.1.4.2.6.5.6.2 0 .4.1.5 0 .2 0 .5-.1.9-.2s.6-.2 1-.4c.6-.2 1.2-.5 2-.9.6-.2 1.3-.6 2.2-1.1.2-.1.5-.2 1-.6.3-.1.5.3.9 0z"/><path class="st2" d="M167.7 271.7c0 .2-.1.5-.4.6-.1.1-.4.1-.6.1s-.5 0-.6-.1l-.4-.4c0-.1-.1-.4-.1-.6-.7.1-1.5.6-2.1 1.3-.6.7-1.2 1.5-1.7 2.5-.5.9-.9 1.6-1 2-.2.5-.4 1-.6 1.6-.2.6-.4 1.1-.5 1.5-.1.4-.1.7-.1 1.2 0 .4-.1.6-.6.7h-.6c-.2 0-.5-.1-.7-.4-.1-.1-.2-.2-.4-.5-.1-.2-.4-.5-.4-.9-.1-.4-.1-.6-.1-1s.1-.7.2-1.1.2-.7.2-1 .1-.7.2-1.1c.1-.5.2-1 .4-1.6.1-.6.2-1.2.4-1.8 0-.5 0-.9.1-1.3 0-.5.1-1 .1-1.5 0-.4.1-.7 0-1.2 0-.5.1-.7.2-.9.7-.1 1.2 0 1.5.2.2.2.5.5.6.7.1.2.1.5.2.7 0 .2 0 .5.1.7v1.2c.2-.4.5-.6.6-.9.2-.2.5-.4.7-.6.2-.2.6-.4 1-.6.4-.1.6-.2 1-.2.6 0 1.2.1 1.8.4.6.2 1.1.6 1.5 1.1.1.1.1.2.1.4v.8zM175.4 278.7c-.1.9-.4 1.7-.7 2.3-.5.6-1 1-1.7 1.2-.7.2-1.5.2-2.1.1-.7-.1-1.3-.4-1.7-.6-.4-.2-.6-.6-1-1.1-.4-.5-.5-1-.6-1.5-.1-.5-.2-1.2-.1-2.1.1-1.2.4-2.5.7-3.6.4-1.1.5-1.8.7-2.3.2-.5.2-.9.5-1.1.1-.4.2-.5.4-.6.1-.1.2-.1.4-.1h.4c.5 0 1 .1 1.5.6.5.4.7.9.7 1.2-.1.5-.2.9-.2 1s-.2.6-.5 1.5c-.2.7-.5 1.7-.9 2.7-.2 1-.4 1.8-.4 2.6.1 1.6.7 2.1 2 1.7 1-.5 1.9-1.1 2.6-1.9zm-1.2-14.1v1.1c0 .1-.1.4-.2.5-.1.1-.4.2-.7.2-.2 0-.5 0-.7-.1-.2-.1-.4-.2-.5-.2s-.2-.1-.4-.2c-.1-.1-.2-.4-.5-.7-.2-.4-.2-.6-.4-.9-.1-.1-.1-.4-.1-.6 0-.2.1-.4.2-.5.1-.1.4-.1.5-.1.2 0 .4-.1.6-.1.2 0 .4-.1.6-.1h.6c.2 0 .4.1.4.2.1.1.1.2.2.4 0 .1.1.2.1.5.2-.1.2.2.3.6z"/><path class="st2" d="M186.4 273.1c0 .7-.1 1.5-.5 2.3-.4.9-.7 1.6-1.2 2.5-.5.9-1.1 1.6-1.7 2.2-.6.7-1.2 1.2-2 1.6-.2.1-.6.2-1 .2s-.9-.2-1.3-.7c-.5-.5-.7-1.1-.6-1.8.1-.4.2-.5.5-.7.2-.1.5-.2.7-.4.2-.1.4-.2.6-.5.9-.9 1.6-1.7 2.1-2.7.5-1 .7-1.8 1-2.6-.6 0-1.3.2-2.2.9-.4.2-.7.7-1.2 1.2-.5.6-1 1.2-1.3 2-.1.2-.2.6-.4 1-.1.5-.2 1-.5 1.5-.1.5-.4 1.1-.5 1.6-.1.5-.4 1.2-.5 2.2-.2 1-.4 1.7-.5 2.5-.1.7-.4 1.3-.5 2.1-.1.6-.2 1.3-.4 2 0 .1-.1.4-.1.7 0 .4-.2.5-.6.6-.6.1-1 0-1.3-.4-.2-.2-.5-.6-.6-.9-.1-.4-.1-.7 0-1.1 0-.5.1-1 .2-1.5s.2-.9.2-1c.4-1.1.9-2.8 1.5-5.3s1.1-4.3 1.3-5.6c.2-1.3.5-2.3.7-3.1.1-.7.4-1.5.5-2.3s.4-1.5.5-2.2c.1-.7.4-1.3.5-2.1.1-.7.5-1.1.9-1.1.5 0 .7.1 1 .4.2.2.4.4.4.6.1.2.1.5.2 1s0 1.1 0 1.8c-.1.7-.2 1.5-.4 2.1-.1.6-.4 1.3-.5 2.2.1-.1.2-.4.5-.7.2-.2.5-.6.9-.9.4-.2.6-.5 1-.7.4-.2.7-.4 1-.4 1 0 1.7.2 2.5.7.4.6.9 1.4 1.1 2.8zM200.6 270c0 .1 0 .1-.1.1 0 0-.2.2-.4.6-.2.4-.5.6-.9.9-.4.2-.6.5-1 .6-.2.1-.5.4-.7.5-.2.1-.4.2-.6.4-.1.1-.4.2-.7.4-.2.1-.6.2-1.1.4-.4.1-1 .4-1.6.5-.7.2-1.2.4-1.5.6s-.5.4-.7.5c-.2.1-.4.2-.5.4-.1.2-.2.6-.2 1-.1.4-.1.7-.2 1.1 0 .4-.1.7-.1.9v1.9c0 .1 0 .4.1.5.1.1 0 .2 0 .4v.4c0 .1-.1.2-.4.4-.1 0-.1.1-.2.1h-.2c-.1 0-.2-.1-.4-.1-.1 0-.2-.2-.2-.4-.4-.5-.6-1-.7-1.3-.1-.4-.1-.9-.1-1.5V278c0-.6 0-1.3.1-2.2 0 0 0-.1-.1-.4-.1-.1-.2-.4-.4-.5-.1-.1-.2-.4-.2-.4 0-.1-.1-.2-.2-.4 0 0-.1-.1-.1-.4s0-.5.1-.7c.1-.2.4-.4.7-.5.4 0 .6-.1.7-.2.1-.1.2-.2.2-.4.1-.2.1-.6.2-1.1.1-.5.2-1.1.4-1.8.1-.7.2-1.5.5-2.2.1-.7.4-1.3.4-1.8.1-.5.2-1.1.5-1.8.1-.4.2-.7.4-1.2.1-.5.2-.9.4-1.2.1-.4.2-.9.4-1.3s.4-.9.6-1c.1-.1.4-.2.5-.2h.2c.1 0 .4 0 .6.1.2.1.4.4.7.7.2.4.4.9.4 1.5s-.1 1.2-.4 2.1c-.2 1.1-.5 2.1-.7 2.7-.2.6-.4 1.3-.6 2.1-.2.7-.4 1.3-.5 2-.1.5-.2 1.2-.4 2h.4c.2 0 .5 0 1.1-.1.6-.1 1-.1 1.2-.1.7-.1 1.6-.1 2.5-.2.3-.8 1.4-1 2.8-1.1z"/><path class="st2" d="M212.5 277.4c-.1.5-.2.9-.4 1-.1.1-.1.5-.4.9-.1.4-.4.7-.6 1.1s-.5.7-.9 1c-.4.2-.9.6-1.5.7-.5.1-1.1 0-1.6 0-.6-.1-1.1-.5-1.7-1.1s-1-2-1.2-4.2c-.5 1-1 1.8-1.5 2.7s-1 1.5-1.3 1.8c-.4.4-.9.6-1.2.7-.4.1-.9.1-1.1 0-.4-.1-.7-.4-1.1-1s-.6-1.1-.6-1.8 0-1.5.1-2.1c.1-.6.1-1 .2-1.3s.1-.7.2-1.1c.1-.4.2-.7.4-1.2.1-.5.2-.7.4-1s.2-.6.4-1.1c.1-.5.4-1 .6-1.3.1-.4.4-.7.5-1.1.1-.4.4-.6.6-1 .2-.4.6-.4.9-.4.2 0 .5.1.9.5.4.2.6.5.7.6.1.1.1.4 0 .6-.1.4-.2.9-.6 1.5-.2.6-.5 1.2-.7 1.8-.4.9-.6 1.6-1 2.5-.4.9-.5 1.5-.6 2-.1.6-.2 1.2-.2 1.8.9-.9 1.8-2 2.8-3.3 1-1.3 1.8-2.8 2.6-4 .1-.2.4-.6.5-.9.1-.2.2-.5.4-.6.1-.1.2-.2.4-.2s.4.1.9.4c.4.2.7.5 1 .6.5.4.6.9.4 1.5s-.4 1.1-.5 1.3c-.1.4-.2.7-.4 1.2s-.2.9-.4 1.3c-.1.5-.1 1-.2 1.6 0 .5-.1 1 0 1.3.4 1 1.1 1.1 2.3.4 1-.7 1.9-1.4 2.5-2.1z"/><path class="st2" d="M222.4 271.7c0 .2-.1.5-.4.6-.1.1-.4.1-.6.1s-.5 0-.6-.1l-.4-.4c0-.1-.1-.4-.1-.6-.7.1-1.5.6-2.1 1.3-.6.7-1.2 1.5-1.7 2.5-.5.9-.9 1.6-1 2-.1.4-.4 1-.6 1.6-.2.6-.4 1.1-.5 1.5-.1.4-.1.7-.1 1.2s-.1.6-.6.7h-.6c-.2 0-.5-.1-.7-.4-.1-.1-.2-.2-.4-.5-.1-.2-.4-.5-.4-.9-.1-.4-.1-.6-.1-1s.1-.7.2-1.1c.1-.4.2-.7.2-1 .1-.4.1-.7.2-1.1.1-.5.2-1 .4-1.6.1-.6.2-1.2.4-1.8 0-.5 0-.9.1-1.3 0-.5.1-1 .1-1.5 0-.4.1-.7 0-1.2 0-.5.1-.7.2-.9.7-.1 1.2 0 1.5.2.2.2.5.5.6.7.1.2.1.5.2.7.1.2 0 .5.1.7v1.2c.2-.4.5-.6.6-.9.1-.2.5-.4.7-.6.2-.2.6-.4 1-.6.4-.1.6-.2 1-.2.6 0 1.2.1 1.8.4.6.2 1.1.6 1.5 1.1.1.1.1.2.1.4v.8zM232.8 277.7c-.2.5-.6 1.1-1 1.6s-.9 1-1.3 1.3c-.5.4-1 .7-1.2.9-.4.1-.5.4-.7.4-.1.1-.5.2-1 .4-.5.1-.9.2-1.1.2h-1s-.4-.1-.6-.2c-.5-.1-.9-.4-1-.5-.2-.1-.5-.5-.9-.9-.4-.5-.6-.9-.7-1.2-.1-.4-.2-.7-.2-1.2-.1-.7-.1-1.3 0-1.7.1-.4.1-.7.2-1 0-.2.2-.7.4-1.5.1-.7.5-1.2.7-1.7.4-.7.9-1.6 1.5-2.5s1.2-1.5 1.7-2c.5-.4 1-.6 1.2-.6s.6 0 .9.1c.2.1.6.4 1 .6.4.4.7 1 1 2 .1.6.1 1.1.1 1.5s-.1.7-.1 1c-.1.2-.2.5-.4.7-.4.6-.9 1.3-1.6 2.2-.7.9-1.3 1.5-1.8 2-.5.4-.9.7-1.1 1s-.4.4-.6.6c.1.1.2.2.4.5.1.2.4.4.6.5.1.1.4.1.5.1h1c.1 0 .4-.1.6-.1.5-.1 1.2-.5 2.2-1 1-.5 1.7-.9 2.1-1.1-.1-.4.1-.4.2-.4zm-5.2-6.8c-.5.4-.7.7-1 1.1-.2.4-.6.9-1 1.6-.4.7-.7 1.5-1 2.2.2-.2.6-.6.9-1 .2-.4.5-.6.7-1 .2-.4.5-.7.9-1.2.2-.5.3-1.1.5-1.7z"/></g></symbol><symbol id="profile" viewBox="0 0 55 55"><path d="M55 27.5C55 12.337 42.663 0 27.5 0S0 12.337 0 27.5c0 8.009 3.444 15.228 8.926 20.258l-.026.023.892.752c.058.049.121.089.179.137.474.393.965.766 1.465 1.127.162.117.324.234.489.348.534.368 1.082.717 1.642 1.048.122.072.245.142.368.212a27.44 27.44 0 0 0 1.88.98l.142.064a27.252 27.252 0 0 0 6.651 2.105l.184.033c.724.125 1.456.225 2.197.292.09.008.18.013.271.021.738.061 1.484.1 2.24.1.749 0 1.488-.039 2.222-.098l.279-.021a27.808 27.808 0 0 0 2.178-.287l.187-.034a27.251 27.251 0 0 0 6.557-2.055c.076-.035.153-.068.229-.104a27.639 27.639 0 0 0 2.25-1.189 27.514 27.514 0 0 0 1.581-1c.185-.126.366-.259.549-.391.439-.316.87-.642 1.289-.983.093-.075.193-.14.284-.217l.915-.764-.027-.023C51.523 42.802 55 35.55 55 27.5zm-53 0C2 13.439 13.439 2 27.5 2S53 13.439 53 27.5c0 7.577-3.325 14.389-8.589 19.063a7.494 7.494 0 0 0-.893-.537l-8.467-4.233a2.217 2.217 0 0 1-1.232-1.993v-2.957c.196-.242.403-.516.617-.817a20.378 20.378 0 0 0 2.616-5.123 3.63 3.63 0 0 0 2.085-3.289v-3.545c0-.867-.318-1.708-.887-2.369v-4.667c.052-.519.236-3.448-1.883-5.864C34.524 9.065 31.541 8 27.5 8s-7.024 1.065-8.867 3.168c-2.119 2.416-1.935 5.345-1.883 5.864v4.667a3.644 3.644 0 0 0-.887 2.369v3.545c0 1.101.494 2.128 1.34 2.821.81 3.173 2.477 5.575 3.093 6.389v2.894a2.23 2.23 0 0 1-1.162 1.958l-7.907 4.313a7.227 7.227 0 0 0-.752.476C5.276 41.792 2 35.022 2 27.5zm40.459 20.632c-.35.254-.706.5-1.067.735-.166.108-.331.216-.5.321-.472.292-.952.57-1.442.83-.108.057-.217.111-.326.167a25.481 25.481 0 0 1-3.488 1.476l-.127.043c-.627.208-1.262.393-1.904.552l-.006.001a25.59 25.59 0 0 1-1.964.402l-.054.01c-.621.101-1.247.174-1.875.229-.111.01-.222.017-.334.025-.621.047-1.245.077-1.872.077a25.43 25.43 0 0 1-1.895-.078c-.109-.008-.218-.015-.326-.025a25.862 25.862 0 0 1-1.89-.233l-.084-.015a25.405 25.405 0 0 1-3.89-.971l-.118-.04a25.86 25.86 0 0 1-1.862-.713l-.013-.006a26.094 26.094 0 0 1-1.705-.816c-.073-.038-.147-.074-.219-.113a25.7 25.7 0 0 1-1.939-1.155 25.417 25.417 0 0 1-1.338-.933l-.133-.104.096-.054 7.907-4.313a4.229 4.229 0 0 0 2.205-3.714l-.001-3.602-.23-.278c-.022-.025-2.184-2.655-3.001-6.216l-.091-.396-.341-.221a1.657 1.657 0 0 1-.769-1.392v-3.545c0-.465.197-.898.557-1.223l.33-.298v-5.57l-.009-.131c-.003-.024-.298-2.429 1.396-4.36C21.583 10.837 24.061 10 27.5 10c3.426 0 5.896.83 7.346 2.466 1.692 1.911 1.415 4.361 1.413 4.381l-.009 5.701.33.298c.359.324.557.758.557 1.223v3.545a1.67 1.67 0 0 1-1.181 1.575l-.497.153-.16.495a18.5 18.5 0 0 1-2.496 5.032c-.262.37-.517.698-.736.949l-.248.283V39.8c0 1.612.896 3.062 2.338 3.782l8.467 4.233.16.083c-.107.081-.217.156-.325.234z"/></symbol><symbol id="search"><path d="M20.194 3.46c-4.613-4.613-12.121-4.613-16.734 0-4.612 4.614-4.612 12.121 0 16.735 4.108 4.107 10.506 4.547 15.116 1.34.097.459.319.897.676 1.254l6.718 6.718a2.498 2.498 0 0 0 3.535 0 2.496 2.496 0 0 0 0-3.535l-6.718-6.72a2.5 2.5 0 0 0-1.253-.674c3.209-4.611 2.769-11.008-1.34-15.118zm-2.121 14.614c-3.444 3.444-9.049 3.444-12.492 0-3.442-3.444-3.442-9.048 0-12.492 3.443-3.443 9.048-3.443 12.492 0 3.444 3.444 3.444 9.048 0 12.492z"/></symbol></svg>